<?xml version="1.0" encoding="UTF-8"?>
<svg id="_レイヤー_2" data-name="レイヤー 2" xmlns="http://www.w3.org/2000/svg" xmlns:xlink="http://www.w3.org/1999/xlink" viewBox="0 0 492.69 752.34">
  <defs>
    <style>
      .cls-1 {
        fill: #a3a3a3;
      }

      .cls-1, .cls-2, .cls-3, .cls-4, .cls-5, .cls-6, .cls-7, .cls-8, .cls-9, .cls-10, .cls-11, .cls-12, .cls-13, .cls-14, .cls-15, .cls-16, .cls-17, .cls-18, .cls-19, .cls-20, .cls-21, .cls-22, .cls-23, .cls-24, .cls-25, .cls-26, .cls-27, .cls-28 {
        stroke-width: 0px;
      }

      .cls-2 {
        fill: #e26917;
      }

      .cls-3 {
        fill: #d8a577;
      }

      .cls-4 {
        fill: #ffec64;
      }

      .cls-5 {
        fill: #ffe14d;
      }

      .cls-6 {
        fill: #ff9739;
      }

      .cls-7 {
        fill: #fff3e6;
      }

      .cls-8 {
        fill: none;
      }

      .cls-9 {
        fill: #e9e9e9;
      }

      .cls-10, .cls-17 {
        fill: #791628;
      }

      .cls-29 {
        clip-path: url(#clippath-1);
      }

      .cls-11 {
        fill: #1e2672;
      }

      .cls-12 {
        fill: #8c3333;
      }

      .cls-13 {
        fill: #ddc84b;
      }

      .cls-14 {
        fill: #fff;
      }

      .cls-15 {
        fill: #3a1919;
      }

      .cls-16 {
        fill: #eadfb0;
      }

      .cls-17 {
        fill-rule: evenodd;
      }

      .cls-18 {
        fill: #9e673e;
      }

      .cls-19 {
        fill: #a31e36;
      }

      .cls-30 {
        clip-path: url(#clippath);
      }

      .cls-20 {
        fill: #8d93ff;
      }

      .cls-31 {
        clip-path: url(#clippath-3);
      }

      .cls-21 {
        fill: #605555;
      }

      .cls-22 {
        fill: #938282;
      }

      .cls-23 {
        fill: #2e3499;
      }

      .cls-24 {
        fill: #c6b44b;
      }

      .cls-25 {
        fill: #f4da6e;
      }

      .cls-26 {
        fill: #cecece;
      }

      .cls-27 {
        fill: #2d329b;
      }

      .cls-28 {
        fill: #ea911b;
      }
    </style>
    <clipPath id="clippath">
      <path class="cls-8" d="m201.91,376.97c-5.63-8.59-15.32-12.18-21.64-8.04-6.32,4.15-6.89,14.47-1.26,23.05,2.73,4.17,6.43,7.15,10.23,8.65.14.26.28.51.45.76l63.13,96.28c2.99,4.57,9.18,5.85,13.75,2.86,4.57-2.99,5.85-9.18,2.86-13.75l-63.13-96.28c-.16-.25-.34-.48-.52-.71.14-4.08-1.12-8.66-3.86-12.83Z"/>
    </clipPath>
    <clipPath id="clippath-1">
      <path class="cls-8" d="m398.84,332.66c-114.11,23.48-195.18,47.98-195.18,47.98-34.57-1.13-77.12-3.14-77.12-3.14,0,5.25-27.9,90.16-27.9,90.16,5.89,15.99,25.8,28.87,106.87,40.31,109.51,11.12,202.12-3.55,235.39-19.7,0,0,2.09-97.64-42.06-155.61Z"/>
    </clipPath>
    <clipPath id="clippath-3">
      <path class="cls-8" d="m76.33,274.34c3.77-9.55,1.13-19.54-5.9-22.32-7.03-2.78-15.79,2.71-19.57,12.26-1.83,4.64-2.14,9.37-1.18,13.34-.13.26-.26.53-.37.8L7,385.49c-2.01,5.08.51,10.88,5.59,12.88s10.88-.51,12.88-5.59l42.31-107.07c.11-.28.2-.56.28-.84,3.42-2.24,6.43-5.91,8.26-10.54Z"/>
    </clipPath>
  </defs>
  <g id="_レイヤー_1-2" data-name="レイヤー 1">
    <g>
      <g>
        <path class="cls-10" d="m183.32,424.79s-33.59,16.92-48.79,17.96c-24.7,1.7-75.64-44.49-75.64-44.49l31.16-48.11s38.69,23.08,49.94,27.98c6.27,2.73,48.3-25.8,65.82,8.63,11.28,22.16-22.49,38.03-22.49,38.03Z"/>
        <path class="cls-15" d="m133.26,446.79c-26.49,0-74.97-43.67-77.06-45.57-1.45-1.32-1.74-3.49-.67-5.14l31.16-48.11c1.17-1.81,3.56-2.36,5.41-1.26.38.23,37.86,22.56,49.16,27.6,1.36-.06,5.24-1.4,8.39-2.48,15.78-5.43,45.15-15.54,59.73,13.11,3.08,6.05,3.57,12.24,1.46,18.39-5.14,15-24.36,24.38-25.77,25.05-1.93.97-34.58,17.28-50.27,18.36-.5.04-1.02.05-1.54.05Zm-69.15-49.24c15.66,13.74,52.34,42.44,70.15,41.21,14.22-.98,46.94-17.38,47.27-17.54.03-.02.06-.03.09-.05h0c.17-.08,17.55-8.41,21.67-20.44,1.39-4.08,1.06-8.05-1.03-12.16-10.54-20.71-30.48-15.89-50-9.17-6.97,2.4-10.81,3.72-13.86,2.39-9.52-4.14-37.39-20.51-47.08-26.24l-27.21,42Z"/>
      </g>
      <path class="cls-5" d="m21.95,380.73c10.01,16.77,17.89,14.54,32.46,22.51,16.64,9.11,26.22,8.54,33.6-1.59,5.93-8.16,11.78-18.97,13.85-39.52,1.16-4.63-21.33-18.06-37.33-26.57-11.12-5.91-20.48-6.22-27.53-3.11-15.32,7.32-23.34,29.87-15.04,48.28Z"/>
      <path class="cls-28" d="m28.87,389.09c8.09,11.14,15.13,8.04,25.54,14.15,11.89,6.98,20.64,9.99,24.73,4.37,6.99-3.65,10.73-8.63,16.37-21.39.39-2.75-30.51-14.82-41.92-21.38-7.93-4.56-14.21-5.52-18.67-4.2-9.64,3.23-13.13,16.43-6.05,28.45Z"/>
      <path class="cls-15" d="m73.72,413.73c-7.03,0-14.37-3.23-21.23-6.98-4.06-2.22-7.53-3.59-10.89-4.92-8.22-3.24-15.32-6.04-23.09-19.05-.08-.13-.15-.27-.21-.41-8.97-19.91-1.04-44.92,16.97-53.53.04-.02.08-.04.11-.05,6.22-2.74,16.65-4.4,31.02,3.24,40.24,21.4,40.11,27.76,39.4,30.78-2.23,21.72-8.61,33.01-14.56,41.19-5.19,7.13-11.23,9.73-17.52,9.73Zm-48.21-34.85c6.31,10.49,11.38,12.49,19.04,15.51,3.42,1.35,7.29,2.88,11.79,5.34,16.75,9.17,23.3,6.63,28.44-.44,5.32-7.31,11.02-17.44,13.06-37.21-1.92-3.13-14.58-12.03-35.19-22.99-9.1-4.84-17.39-5.88-23.98-3.01-13.9,6.69-20.13,27.02-13.16,42.8Zm72.47-17.73s0,0,0,0c0,0,0,0,0,0Z"/>
      <g>
        <rect class="cls-19" x="53.82" y="340.61" width="50.78" height="81.31" transform="translate(219.06 17.84) rotate(32.78)"/>
        <path class="cls-10" d="m79.88,333.34l-13.34,20.71c.25,4.2,1.62,8.44,4.83,12.3,7.95,9.57,21.85,18.69,31.86,24.52l19.35-30.04-42.69-27.49Z"/>
        <rect class="cls-4" x="70.33" y="340.61" width="17.77" height="81.31" transform="translate(219.06 17.84) rotate(32.78)"/>
        <g>
          <polygon class="cls-4" points="93.76 342.28 75.44 370.72 49.73 410.64 64.67 420.26 89.31 382 108.7 351.9 93.76 342.28"/>
          <path class="cls-13" d="m93.76,342.28l-18.32,28.45c4.08,4,8.95,7.83,13.87,11.28l19.39-30.11-14.94-9.62Z"/>
        </g>
        <path class="cls-15" d="m78.54,433.2c-.76,0-1.51-.22-2.17-.64l-42.69-27.49c-1.86-1.2-2.39-3.67-1.2-5.53l44.03-68.36c.58-.89,1.48-1.52,2.52-1.74s2.12-.03,3.01.55l42.69,27.49c.89.58,1.52,1.48,1.74,2.52.22,1.04.03,2.12-.55,3.01l-44.03,68.36c-.58.89-1.48,1.52-2.52,1.74-.28.06-.56.09-.85.09Zm-37.16-32.69l35.96,23.16,39.7-61.64-35.96-23.16-39.7,61.64Z"/>
      </g>
      <path class="cls-6" d="m138.75,294.24l-12.06,13.03c-18.67,12.98-40.33,24.46-50.38,26.7-1.6.35-2.96,1-4.05,1.91-2.23,1.85-3.22,4.81-2.54,7.59.31,1.28.96,2.45,1.87,3.4,1.08,1.2,2.14,2.11,3.41,2.97,9.74,6.57,29.45,6.76,55.18-.11l6.85-1.83c-4.43-15.91-10.21-32.95,1.73-53.66Z"/>
      <path class="cls-2" d="m135.27,295.92l-12.06,13.03c-9.05,6.29-19.06,12.51-27.86,17.22,1.76,19.44-8.07,28.26-8.07,28.26,8.58-.37,28.22-.04,39.4-3.03l6.85-1.83c-4.43-15.91-10.21-32.95,1.73-53.66Z"/>
      <path class="cls-15" d="m96.68,358.83c-10.18,0-18.33-1.89-23.94-5.67-1.55-1.05-2.85-2.18-4.11-3.57-1.37-1.44-2.34-3.23-2.81-5.16-1.04-4.26.48-8.82,3.87-11.63,1.58-1.32,3.51-2.24,5.74-2.73,9.39-2.09,30.68-13.41,48.61-25.83l11.77-12.71c1.38-1.5,3.67-1.71,5.31-.5,1.64,1.21,2.11,3.46,1.09,5.22-10.48,18.16-6.2,33.36-2.05,48.07l.71,2.52c.29,1.03.15,2.13-.38,3.06-.53.93-1.41,1.6-2.44,1.88l-6.85,1.83c-13.08,3.49-24.73,5.24-34.51,5.24Zm31.68-47.86c-19.2,13.28-40.65,24.56-51.2,26.9-.96.21-1.76.58-2.36,1.08-1.06.88-1.53,2.27-1.22,3.57.15.59.45,1.14.87,1.59.03.03.05.06.08.09.84.94,1.65,1.64,2.68,2.34,8.77,5.92,28.17,5.67,51.9-.67l2.94-.79c-2.9-10.32-5.82-21.55-3.7-34.11Z"/>
      <path class="cls-6" d="m368.51,601.89c-12.74,8.77-25.19,15.08-36.99,19.63l-.76,1.39c-26.78,49-84.91,86.67-135.21,87.62-25.07.45-44.5-8.97-54.87-26.42-13.76-23.13-35.28-31.54-49.43-27.9-10.35,2.67-16.51,11.39-16.92,23.93-.35,10.82,8.24,24.2,23.55,36.72,20.89,17.08,53.81,31.47,87.32,31.47,8.29,0,16.63-.88,24.82-2.82,69.54-16.47,133.22-70.69,154.85-131.86l3.76-11.86s-.09.06-.13.09Z"/>
      <path class="cls-2" d="m360.62,607.03c-24.9,56.7-85.15,105.65-150.6,121.15-8.19,1.94-16.53,2.82-24.82,2.82-33.51,0-66.43-14.39-87.32-31.47-11.47-9.38-19.16-19.24-22.16-28.14-.82,2.65-1.29,5.58-1.39,8.76-.35,10.82,8.24,24.2,23.55,36.72,20.89,17.08,53.81,31.47,87.32,31.47,8.29,0,16.63-.88,24.82-2.82,69.54-16.47,133.21-70.69,154.85-131.86l3.76-11.86s-.09.06-.13.09c-2.64,1.82-5.27,3.53-7.88,5.14Z"/>
      <path class="cls-15" d="m185.2,752.34c-37.05,0-70.71-16.72-89.85-32.37-16.29-13.32-25.41-27.88-25.02-39.95.46-14.24,7.9-24.58,19.92-27.68,15.6-4,39.12,4.92,53.87,29.73,9.63,16.21,27.83,24.89,51.36,24.47,48.97-.93,105.62-37.71,131.77-85.54l.76-1.4c.45-.83,1.19-1.47,2.07-1.81,12.5-4.83,24.66-11.28,36.14-19.18.04-.03.14-.1.17-.12,1.41-.96,3.27-.92,4.64.1,1.37,1.02,1.94,2.79,1.42,4.42l-3.76,11.86s-.03.08-.04.12c-22.07,62.38-86.92,117.66-157.7,134.42-8.21,1.94-16.87,2.93-25.74,2.93Zm-87.09-92.96c-2.07,0-4.04.24-5.87.71-8.62,2.22-13.56,9.39-13.91,20.19-.3,9.42,7.95,21.94,22.08,33.5,18.08,14.77,49.84,30.56,84.79,30.56,8.25,0,16.29-.91,23.9-2.71,68.26-16.16,130.75-69.31,151.98-129.24l.37-1.17c-8.76,5.31-17.85,9.83-27.12,13.51l-.06.12c-27.41,50.16-87.02,88.72-138.64,89.7-.6.01-1.21.02-1.8.02-25.63,0-45.67-10.04-56.59-28.4-10.91-18.34-26.8-26.78-39.13-26.78Z"/>
      <path id="silhouette" class="cls-5" d="m367.95,617.24c22.36-15.46,50.33-50.34,56.91-128.79,4.07-48.46-1.61-103.23-14.45-139.54-3.75-10.59-8.09-20.74-13.3-30.09-20.69-37.15-43.47-52.03-43.49-52.04-1.27-.97-2.55-1.92-3.86-2.85-1.76-1.27-3.55-2.52-5.4-3.72,0,0,0,0-.01,0,0,0,0,0-.01,0-20.79-13.31-44.21-20.45-69.62-21.22h0s0,0,0,0c-2.09-.06-4.2-.1-6.28-.1-60.51,0-123.04,25.67-147.39,71.79-19.36,36.66,7.08,46.95,9.21,49.39,10.71,9.58-22.11,115.97-22.11,115.97-17.14,1.99-46.18,14.14-49.9,41.83-.05.36,1.2,5.8,1.78,8.14.03.12.05.25.09.37.17.67.34,1.34.51,2.01-6.38-4.61-13.25-7.06-19.97-7.06-7.65,0-14.71,3.28-19.36,8.99-5.36,6.59-7.18,15.69-5.13,25.63,4.87,23.56,45.04,67.51,73.31,74.3,2.36.57,4.54.85,6.48.85,4.65,0,8.08-1.63,10.19-4.85,3.69-5.64,2.53-14.91.75-21.23,62.89,59.56,167.3,42.74,167.3,42.74h.4c14.57,0,31.18-1.36,56.24-10.77,25.06-9.42,37.12-19.72,37.12-19.72Z"/>
      <path class="cls-28" d="m406.32,352.12c-3.75-10.59-8.09-20.74-13.3-30.09-16.25-29.18-33.79-44.62-40.58-49.9,6.18,7.53,12.94,17.05,19.49,28.81,5.21,9.35,9.55,19.49,13.3,30.09,12.85,36.31,25.52,97.08,21.45,145.54-6.58,78.45-34.55,113.34-56.91,128.79,0,0-12.06,10.31-37.12,19.72-25.06,9.42-56.63,10.77-56.63,10.77,0,0-111.41,10.81-174.3-48.74,1.78,6.31,2.94,15.59-.75,21.23-2.1,3.22-5.53,4.85-10.19,4.85-1.94,0-4.12-.29-6.48-.85-9.89-2.37-21.23-9.3-32.01-18.31,15.3,18.21,36.3,35.37,53.1,39.4,2.36.57,4.54.85,6.48.85,4.65,0,8.08-1.63,10.19-4.85,3.69-5.64,2.53-14.91.75-21.23,62.89,59.56,167.3,42.74,167.3,42.74h.4c14.57,0,31.18-1.36,56.24-10.77,25.06-9.42,37.12-19.72,37.12-19.72,22.36-15.46,50.33-50.34,56.92-128.79,4.07-48.46-1.61-103.23-14.46-139.54Z"/>
      <path class="cls-28" d="m422.24,391.07c-5.53-13.73-12.53-26.98-21.4-38.62-114.11,23.48-199.18,47.98-199.18,47.98-34.57-1.13-77.12-3.14-77.12-3.14,0,1.64-2.72,11.05-6.47,23.23-.34,1.44-.7,2.91-1.06,4.42-5.5,22.55-11.84,44.34-13.96,51.49-.96.16-1.96.35-2.99.57-2.09,6.4-3.42,10.46-3.42,10.46,5.89,15.99,25.8,28.87,106.87,40.31,93.41,9.49,177.43.21,220.76-12.75,1.05-7,1.93-14.4,2.58-22.23,2.82-33.57,1-70.16-4.62-101.71Z"/>
      <path class="cls-28" d="m342.59,268.66s35.5,47.1-39.24,74.24l93.76-24.07s-9.2-29.77-54.53-50.17Z"/>
      <path class="cls-15" d="m240.4,657.94c-7.97,0-16.98-.33-26.65-1.25-29.02-2.77-69.05-11.61-101.19-37.44.13,4.48-.54,9.31-3.07,13.17-1.99,3.04-5.95,6.66-13.53,6.66-2.25,0-4.75-.32-7.41-.96-30.02-7.21-71.1-52.27-76.29-77.38-2.31-11.14-.2-21.43,5.94-28.97,5.42-6.65,13.6-10.46,22.47-10.46,4.64,0,9.36,1.03,13.96,3.03-.44-2.23-.39-2.67-.34-3.02,4-29.8,33.55-42.08,50.76-44.9,2.12-7.15,8.46-28.93,13.96-51.49,12.59-51.64,9.02-59.12,8.47-59.89-.03-.03-.06-.05-.09-.08-.23-.16-.79-.5-1.25-.77-6.72-4.03-27.16-16.3-8.63-51.39,14.79-28.01,43.53-45.36,65.04-54.98,26.92-12.04,58.23-18.95,85.88-18.95h0c2.12,0,4.28.03,6.41.1,26.14.79,50.25,8.14,71.66,21.85.02.01.05.03.07.04,1.68,1.09,3.44,2.31,5.54,3.82,1.14.81,2.37,1.72,3.84,2.84,2.02,1.36,24.42,17,44.66,53.35,5.01,9,9.45,19.04,13.58,30.7,13.02,36.8,18.78,92.23,14.67,141.21-6.7,79.86-35.46,115.66-58.47,131.64-1.63,1.35-14.01,11.21-38.14,20.29-25.8,9.7-42.95,11.03-57.64,11.03h-.09c-2.31.35-15.33,2.2-34.1,2.2Zm-133.5-52.94c1,0,1.99.37,2.75,1.1,31.61,29.93,74.36,39.69,104.66,42.61,33.11,3.19,59-.87,59.26-.91.21-.03.46-.02.64-.05h.4c13.93,0,30.22-1.27,54.82-10.52,23.98-9.01,35.82-18.93,35.93-19.03.1-.09.21-.17.32-.25,21.62-14.94,48.75-48.9,55.2-125.84,4.02-47.94-1.57-102.06-14.24-137.87-3.97-11.23-8.23-20.87-13.02-29.47-19.83-35.61-41.29-50.05-42.2-50.65-.06-.04-.12-.08-.17-.12-1.5-1.14-2.69-2.02-3.81-2.81-2.02-1.46-3.68-2.6-5.25-3.63-.02,0-.03-.02-.05-.03-20.17-12.9-42.89-19.82-67.54-20.57-2.05-.06-4.12-.09-6.17-.09-52.63,0-120.83,26.05-143.85,69.66-14.99,28.39-.51,37.08,5.68,40.79,1.23.74,2.08,1.25,2.75,1.94,2.54,2.38,4.73,7.46,2.22,25.85-1.4,10.31-4.15,23.93-8.16,40.49-6.8,28.07-15.02,55.31-15.1,55.58-.46,1.53-1.78,2.63-3.37,2.82-16.72,1.95-42.72,13.63-46.32,37.86.25,1.3,1.1,5.03,1.63,7.17l.06.28c.18.74.35,1.39.52,2.04.43,1.63-.21,3.36-1.61,4.32-1.39.96-3.24.93-4.6-.05-5.71-4.12-11.81-6.3-17.62-6.3-6.45,0-12.37,2.74-16.26,7.51-4.59,5.63-6.12,13.55-4.31,22.3,4.56,22.06,43.77,64.85,70.33,71.22,2.05.49,3.92.74,5.54.74,4.35,0,5.98-1.73,6.84-3.04,2.74-4.19,1.92-12.02.25-17.96-.49-1.73.24-3.58,1.78-4.51.64-.39,1.36-.58,2.07-.58Zm20.62-239.92s0,0,.01,0c0,0,0,0-.01,0Zm-.33-.34s.08.09.13.14c-.04-.05-.09-.09-.13-.14Z"/>
      <g>
        <path class="cls-19" d="m402.84,332.66c-114.11,23.48-199.18,47.98-199.18,47.98-34.57-1.13-77.12-3.14-77.12-3.14,0,5.25-27.9,93.16-27.9,93.16,5.89,15.99,25.8,25.87,106.87,37.31,109.51,11.12,206.12-3.55,239.39-19.7,0,0,2.09-97.64-42.06-155.61Z"/>
        <path class="cls-15" d="m282.39,515.87c-24.34,0-50.29-1.18-77.29-3.92-.05,0-.1-.01-.16-.02-40.5-5.72-65.93-11.01-82.46-17.17-15.62-5.81-23.87-12.61-27.6-22.72-.31-.83-.33-1.75-.06-2.59,10.45-32.94,27.19-86.96,27.71-92.06.03-1.05.47-2.06,1.24-2.79.79-.75,1.87-1.15,2.95-1.1.42.02,42.4,2,76.44,3.12,7.91-2.25,90.93-25.67,198.87-47.88,1.51-.31,3.06.27,3.99,1.49,23.32,30.61,33.73,72.01,38.36,101.34,4.99,31.65,4.54,55.77,4.52,56.78-.03,1.5-.9,2.86-2.25,3.51-24.1,11.7-85.66,24-164.25,24Zm-76.4-11.87c109.97,11.16,202.08-3.7,234.92-18.28-.07-15.25-2.27-97.35-39.76-148.62-111.4,23.02-195.55,47.15-196.39,47.39-.4.12-.82.17-1.24.15-28.58-.94-62.99-2.49-73.78-2.99-3.83,15.86-20.64,69.22-26.87,88.85,5.71,13.1,25.01,22.47,103.11,33.5Zm-83.45-126.57s0,.05,0,.07c0-.02,0-.05,0-.07Z"/>
      </g>
      <path class="cls-17" d="m364.52,444.96c-23.22,13.8-102.29,23.79-102.29,23.79l-.61,24.66s69.62-7.23,109.16-27.21c34.39-17.38,47.29-48.23,41.18-55.36-4.76-5.57-26.68,21.78-47.45,34.12Z"/>
      <g>
        <path class="cls-23" d="m119.88,367.23l2.54,18.36c.12.93.87,1.64,1.8,1.73l66.2,5.06s.03-.19.07-.54c1.3-11.03-6.82-20.95-17.88-22.01l-50.55-4.85c-1.28-.12-2.34.98-2.17,2.25Z"/>
        <path class="cls-15" d="m190.41,396.38c-.1,0-.2,0-.3-.01l-66.2-5.06c-2.87-.27-5.09-2.4-5.46-5.2l-2.53-18.33s0-.02,0-.03c-.24-1.82.36-3.63,1.63-4.95s3.07-1.98,4.89-1.8l50.55,4.85c6.47.62,12.28,3.75,16.36,8.8,4.04,5.01,5.86,11.28,5.11,17.65-.05.46-.1.72-.1.72-.33,1.94-2.01,3.35-3.95,3.35Zm-64.25-12.92l60.39,4.62c-.28-3.04-1.46-5.95-3.43-8.39-2.72-3.37-6.59-5.45-10.9-5.86l-48.03-4.61,1.97,14.25Zm.22,1.56v.02s0-.02,0-.02Z"/>
      </g>
      <path class="cls-23" d="m403.11,316.54l5.57,16.53c.04.93-.56,1.77-1.46,2.02l-216.8,57.29s-1.38-21.8,14.28-27.16l195.88-50.51c1.24-.35,2.48.55,2.54,1.83Z"/>
      <path class="cls-11" d="m330.94,332.66s6.2,5.84,2.68,19.62l75.05-19.22-5.57-16.53-72.16,16.12Z"/>
      <path class="cls-15" d="m190.41,396.38c-.83,0-1.65-.26-2.34-.75-.97-.7-1.58-1.8-1.65-2.99-.06-1.01-1.36-24.91,16.97-31.2.1-.03.2-.06.3-.09l195.88-50.51c1.69-.48,3.56-.14,5.05.93,1.3.94,2.16,2.33,2.41,3.88l5.44,16.14c.12.35.19.72.2,1.09.13,2.81-1.67,5.31-4.38,6.06l-216.86,57.31c-.34.09-.68.13-1.02.13Zm15.44-27.33c-8.31,2.94-10.63,12.22-11.25,18.08l209.43-55.34-4.29-12.74-193.89,50Zm195.8-50.49l-.08.02s.05-.01.08-.02Z"/>
      <path class="cls-15" d="m187.97,505.21h-.08c-1.9-.04-3.41-1.62-3.37-3.52l2.44-109.39c.04-1.88,1.58-3.37,3.44-3.37h.08c1.9.04,3.41,1.62,3.37,3.52l-2.44,109.39c-.04,1.88-1.58,3.37-3.44,3.37Z"/>
      <g>
        <g>
          <path class="cls-4" d="m184.52,440.06c-7.35,0-14.27-.6-20.65-1.81-1.79-.34-2.97-2.07-2.64-3.87.34-1.79,2.07-2.97,3.87-2.64,11.85,2.24,32.09,3.37,61.27-3.96,1.77-.45,3.57.63,4.01,2.4.45,1.77-.63,3.57-2.4,4.01-15.47,3.89-30.17,5.85-43.46,5.85Z"/>
          <g>
            <circle class="cls-4" cx="158.04" cy="434.42" r="8.79"/>
            <path class="cls-24" d="m158.04,445.71c-5.93,0-10.91-4.64-11.26-10.63-.17-3.01.83-5.91,2.84-8.16s4.77-3.59,7.78-3.76c3-.17,5.91.83,8.16,2.84,2.25,2,3.59,4.77,3.76,7.78s-.83,5.91-2.84,8.16c-2,2.25-4.77,3.59-7.78,3.76-.22.01-.44.02-.66.02Zm.02-17.57c-.12,0-.25,0-.37.01-1.68.1-3.21.84-4.33,2.1-1.12,1.25-1.68,2.87-1.58,4.54.2,3.46,3.2,6.13,6.64,5.91,1.68-.1,3.21-.84,4.33-2.1,1.12-1.25,1.68-2.87,1.58-4.54-.1-1.68-.84-3.21-2.1-4.33-1.16-1.03-2.63-1.59-4.17-1.59Z"/>
          </g>
          <g>
            <circle class="cls-4" cx="233.53" cy="430.41" r="8.79"/>
            <path class="cls-24" d="m233.51,441.7c-2.77,0-5.41-1-7.49-2.86-2.25-2-3.59-4.77-3.76-7.78s.83-5.91,2.84-8.16c2-2.25,4.77-3.59,7.78-3.76,3.02-.18,5.91.83,8.16,2.84,2.25,2,3.59,4.77,3.76,7.78h0c.17,3.01-.83,5.91-2.84,8.16-2,2.25-4.77,3.59-7.78,3.76-.22.01-.45.02-.67.02Zm.02-17.58c-.12,0-.25,0-.37.01-1.68.1-3.21.84-4.33,2.09-1.12,1.25-1.68,2.87-1.58,4.55.1,1.68.84,3.21,2.1,4.33,1.25,1.12,2.86,1.68,4.54,1.58,1.68-.1,3.21-.84,4.33-2.1,1.12-1.25,1.68-2.87,1.58-4.54h0c-.1-1.68-.84-3.21-2.1-4.33-1.16-1.03-2.63-1.59-4.17-1.59Z"/>
          </g>
        </g>
        <g>
          <path class="cls-4" d="m178.88,406.6c-5.72,0-11.16-.39-16.28-1.18-1.81-.28-3.04-1.97-2.76-3.78.28-1.8,1.97-3.04,3.78-2.76,11.89,1.84,32.15,2.29,61.1-6.04,1.75-.51,3.59.51,4.09,2.27.5,1.76-.51,3.59-2.27,4.09-17.06,4.91-33.24,7.4-47.66,7.4Z"/>
          <g>
            <circle class="cls-4" cx="156.67" cy="401.82" r="8.79"/>
            <path class="cls-24" d="m156.65,413.11c-2.64,0-5.18-.92-7.23-2.63-2.31-1.94-3.73-4.66-4-7.66-.27-3,.65-5.93,2.59-8.24,1.94-2.31,4.66-3.73,7.66-4,3.01-.27,5.93.65,8.24,2.59,2.31,1.94,3.73,4.66,4,7.66h0c.55,6.2-4.05,11.69-10.25,12.24-.34.03-.68.04-1.01.04Zm.03-17.58c-.19,0-.38,0-.56.03-1.67.15-3.19.94-4.27,2.23-1.08,1.29-1.59,2.92-1.44,4.59s.94,3.19,2.23,4.27c1.29,1.08,2.92,1.59,4.59,1.44,3.45-.31,6.01-3.36,5.71-6.82-.15-1.67-.94-3.19-2.23-4.27-1.14-.96-2.55-1.47-4.03-1.47Z"/>
          </g>
          <g>
            <circle class="cls-4" cx="231.96" cy="395.16" r="8.79"/>
            <path class="cls-24" d="m231.95,406.45c-5.78,0-10.72-4.43-11.23-10.29-.27-3,.65-5.93,2.59-8.24s4.66-3.73,7.66-4c3.01-.27,5.93.66,8.24,2.59,2.31,1.94,3.73,4.66,4,7.66.27,3-.65,5.93-2.59,8.24-1.94,2.31-4.66,3.73-7.66,4-.34.03-.67.04-1,.04Zm.02-17.58c-.19,0-.38,0-.56.03-1.67.15-3.19.94-4.27,2.23s-1.59,2.92-1.44,4.59c.31,3.45,3.37,6.01,6.82,5.71,1.67-.15,3.19-.94,4.27-2.23s1.59-2.92,1.44-4.59h0c-.15-1.67-.94-3.19-2.23-4.27-1.14-.96-2.55-1.47-4.03-1.47Z"/>
          </g>
        </g>
        <g>
          <path class="cls-4" d="m185.37,473.98c-7.35,0-14.27-.6-20.65-1.81-1.79-.34-2.97-2.07-2.64-3.87.34-1.79,2.07-2.97,3.87-2.64,11.85,2.24,32.09,3.37,61.27-3.96,1.77-.45,3.57.63,4.01,2.4.45,1.77-.63,3.57-2.4,4.01-15.47,3.89-30.17,5.85-43.47,5.85Z"/>
          <g>
            <circle class="cls-4" cx="158.89" cy="468.34" r="8.79"/>
            <path class="cls-24" d="m158.88,479.63c-2.77,0-5.41-1-7.49-2.86-2.25-2-3.59-4.77-3.76-7.78s.83-5.91,2.84-8.16,4.77-3.59,7.78-3.76c3.01-.16,5.91.83,8.16,2.84,2.25,2,3.59,4.77,3.76,7.78.17,3.01-.83,5.91-2.84,8.16-2,2.25-4.77,3.59-7.78,3.76-.22.01-.45.02-.67.02Zm.02-17.58c-.12,0-.25,0-.37.01-1.68.1-3.21.84-4.33,2.1-1.12,1.25-1.68,2.87-1.58,4.54.1,1.68.84,3.21,2.1,4.33,1.25,1.12,2.87,1.68,4.54,1.58,1.68-.1,3.21-.84,4.33-2.1,1.12-1.25,1.68-2.87,1.58-4.54h0c-.1-1.68-.84-3.21-2.09-4.33-1.16-1.03-2.63-1.59-4.17-1.59Z"/>
          </g>
          <g>
            <circle class="cls-4" cx="234.38" cy="464.33" r="8.79"/>
            <path class="cls-24" d="m234.36,475.62c-2.77,0-5.41-1-7.49-2.86-2.25-2-3.59-4.77-3.76-7.78-.17-3.01.83-5.91,2.84-8.16s4.77-3.59,7.78-3.76c3.01-.16,5.91.83,8.16,2.84,2.25,2,3.59,4.77,3.76,7.78h0c.36,6.21-4.4,11.56-10.62,11.92-.22.01-.45.02-.67.02Zm.03-17.58c-.12,0-.25,0-.37.01-1.68.1-3.21.84-4.33,2.1-1.12,1.25-1.68,2.87-1.58,4.54.1,1.68.84,3.21,2.1,4.33,1.25,1.12,2.86,1.68,4.54,1.58,3.46-.2,6.11-3.18,5.91-6.64-.1-1.68-.84-3.21-2.1-4.33-1.16-1.03-2.63-1.59-4.17-1.59Z"/>
          </g>
        </g>
      </g>
      <path class="cls-15" d="m180.31,304.2c-7.09,5.32-4.95,11.89,2.97,12.88,7.93.99,8.54,1.51,15.85-3.96,7.92-5.94,8.91-15.85,0-14.86-8.91.99-14.86,2.97-18.82,5.94Z"/>
      <circle class="cls-15" cx="150.59" cy="308.17" r="8.91"/>
      <circle class="cls-15" cx="253.61" cy="283.41" r="8.91"/>
      <path class="cls-15" d="m134.67,365.36c-2.21,0-4-1.79-4-4s1.79-4,4-4c9.78,0,40.34-11.69,50.05-29.33.53-.96,1.42-1.66,2.48-1.94,1.06-.28,2.18-.11,3.12.46,9.83,6.04,20.68,8.97,33.17,8.97s25.17-3.01,37.15-6.63c.04-.01.08-.03.13-.04,1.82-.55,3.63-1.12,5.42-1.69.03,0,.05-.02.08-.02h0c2.11-.67,4.36.49,5.03,2.59.67,2.1-.49,4.36-2.59,5.03-14.23,4.55-29.56,8.77-45.2,8.77-12.58,0-23.72-2.68-33.92-8.17-13.06,18.76-43.77,30.01-54.9,30.01Z"/>
      <g>
        <polygon class="cls-25" points="418.81 342.48 145.67 556.97 126.7 528.15 401.27 310.84 418.81 342.48"/>
        <polygon class="cls-12" points="412.71 336.41 141.14 549.71 130.2 535.46 405.39 319.1 412.71 336.41"/>
        <path class="cls-15" d="m145.67,560.97c-.21,0-.43-.02-.64-.05-1.1-.18-2.08-.81-2.7-1.75l-18.97-28.83c-1.14-1.73-.77-4.05.86-5.34l274.57-217.31c.92-.73,2.12-1.02,3.27-.79,1.15.23,2.14.96,2.71,1.98l17.54,31.65c.95,1.72.52,3.87-1.03,5.08l-273.14,214.49c-.71.56-1.58.85-2.47.85Zm-13.62-31.96l14.57,22.13,267.04-209.7-13.6-24.54-268,212.11Z"/>
      </g>
      <g>
        <path class="cls-26" d="m339.24,447.44l.17-10.4c-1.04,3.68-5.49,7.17-12.73,10.35l-271.16-1.07c-7.2-3.23-11.62-6.76-12.62-10.45l.06,10.4h-.12s-.56,105.73-.56,105.73h-.23s-.05,10.14-.05,10.14h.24s.12,19.43.12,19.43c5.9,15.23,69.83,27.45,147.88,27.76,78.05.31,142.1-11.41,148.17-26.6l.32-19.43h.24s.05-10.14.05-10.14h-.23s.56-105.74.56-105.74h-.12Z"/>
        <path class="cls-23" d="m338.8,553.18l.56-105.74-296.5-1.17-.56,105.74h-.23s-.05,10.14-.05,10.14h.46c5.9,15.23,69.83,27.46,147.88,27.76,78.05.31,142.1-11.41,148.17-26.6h.46s.05-10.14.05-10.14h-.23Z"/>
        <path class="cls-27" d="m338.52,579.71h.46s.05-11.57.05-11.57h-.23s.56-120.66.56-120.66l-112.18,2.7v156.8s72.35,4.67,111.34-27.27Z"/>
        <path class="cls-26" d="m338.75,562.48c-4.38,15.52-69.17,27.6-148.4,27.28-79.23-.31-143.89-12.9-148.1-28.45l.12,20.27c5.9,15.23,69.83,27.45,147.88,27.76,78.05.31,142.1-11.41,148.17-26.6l.34-20.27Z"/>
        <path class="cls-26" d="m339.42,437.04c-4.38,15.52-69.17,27.6-148.4,27.28-79.23-.31-143.89-12.9-148.1-28.45l.12,20.27c5.9,15.23,69.83,27.45,147.88,27.76,78.05.31,142.1-11.41,148.17-26.6l.34-20.27Z"/>
        <path class="cls-11" d="m338.52,579.71h.46s.05-11.57.05-11.57h-.23s.56-120.66.56-120.66l-112.18,2.7v156.8s72.35,4.67,111.34-27.27Z"/>
        <path class="cls-1" d="m325.73,447.63c-18.73,7.89-54.81,13.78-98.55,15.78v19.58c60.82-2.79,106.8-13.1,111.9-25.85l.16-9.83.17-10.44c-1.08,3.84-5.88,7.48-13.69,10.76Z"/>
        <path class="cls-1" d="m325.73,573.19c-18.73,7.89-54.81,13.78-98.55,15.78v19.58c60.82-2.79,106.8-13.1,111.9-25.85l.16-9.83.17-10.44c-1.08,3.84-5.88,7.48-13.69,10.76Z"/>
        <path class="cls-26" d="m339.42,437.04c-4.38,15.52-69.17,27.6-148.4,27.28-79.23-.31-143.89-12.9-148.1-28.45l.12,20.27c5.9,15.23,69.83,27.45,147.88,27.76,78.05.31,142.1-11.41,148.17-26.6l.34-20.27Z"/>
        <path class="cls-20" d="m88.09,456.72c-4.76-.08-9.28-.95-13.37-2.46v140.51c4.04,1.47,8.51,2.32,13.2,2.4.56,0,1.12,0,1.67,0v-140.45c-.5,0-1,.01-1.5,0Z"/>
        <path class="cls-14" d="m87.92,597.16c.56,0,1.12,0,1.67,0v-15.64c-5.34-1-10.31-2.08-14.87-3.23v16.48c4.04,1.47,8.51,2.32,13.2,2.4Z"/>
        <path class="cls-14" d="m88.09,456.61c-4.76-.07-9.28-.91-13.37-2.35v18.04c4.56,1.16,9.53,2.25,14.87,3.27v-18.95c-.5,0-1,.01-1.5,0Z"/>
        <g>
          <path class="cls-16" d="m191.02,464.33c79.23.31,144.02-11.77,148.4-27.28l.02-3.29c-4.21-15.55-68.88-28.14-148.1-28.45-79.23-.31-144.02,11.77-148.4,27.28l-.02,3.29c4.21,15.55,68.88,28.14,148.1,28.45Z"/>
          <path class="cls-15" d="m194.01,468.33c-1,0-2,0-3.01,0-38.46-.15-75.01-3.2-102.92-8.58-30-5.79-46.49-13.46-49.03-22.82l-.14-.52.02-4.38.15-.52c2.63-9.33,19.2-16.88,49.25-22.42,27.97-5.16,64.53-7.9,103.01-7.77,38.46.15,75.01,3.2,102.92,8.58,30,5.79,46.49,13.46,49.02,22.82l.14.52-.02,4.38-.15.52c-2.63,9.33-19.2,16.88-49.25,22.43-27.24,5.03-62.65,7.78-100,7.78Zm-147.09-33.08c4.08,10.18,56.8,24.73,144.12,25.07h0c1.04,0,2.09,0,3.12,0,85.46,0,137.12-13.92,141.26-23.95v-2c-4.07-10.18-56.79-24.73-144.11-25.07-87.3-.31-140.2,13.79-144.39,23.95v2.01Z"/>
        </g>
        <path class="cls-7" d="m114.48,435.45v-2.29c2.53-8.92,33.76-16.21,75.63-18.35-7.58-.38-15.49-.6-23.61-.63-55.11-.22-100.19,8.19-103.24,18.98v2.29c2.92,10.82,47.9,19.58,103.02,19.79,9.56.04,18.83-.18,27.62-.63-43.85-2.21-76.92-9.94-79.42-19.16Z"/>
        <path class="cls-15" d="m193.23,613.35c-1,0-2,0-3,0-37.85-.15-73.98-3.12-101.72-8.35-29.61-5.59-46.39-12.98-49.87-21.96-.18-.46-.27-.96-.27-1.46l.49-135.3c0-.32.04-.63.11-.93l-.06-9.43.02-3.34c0-.36.05-.72.15-1.07,2.63-9.33,19.2-16.88,49.25-22.42,27.97-5.16,64.53-7.9,103.01-7.77,38.46.15,75.01,3.2,102.92,8.58,30,5.79,46.49,13.46,49.02,22.82.09.35.14.71.14,1.07l-.02,3.29-.16,9.48c.07.3.1.61.1.93l-.94,135.3c0,.5-.1.99-.29,1.46-3.58,8.95-20.43,16.2-50.09,21.56-27.06,4.89-62.05,7.56-98.81,7.56Zm-146.85-32.63c5.69,10.3,57.7,24.29,143.89,24.63,86.17.35,138.35-13.24,144.16-23.5l.93-133.46c-.08-.33-.12-.66-.11-1l.19-13c-4.08-10.18-56.8-24.73-144.12-25.07-87.3-.31-140.2,13.79-144.39,23.95v2.65s.05,10.36.05,10.36c0,.34-.04.68-.12,1l-.48,133.46Z"/>
        <g>
          <path class="cls-15" d="m56.11,591.23h-.02c-2.21-.01-3.99-1.81-3.98-4.02l.75-139.56c.01-2.2,1.8-3.98,4-3.98h.02c2.21.01,3.99,1.81,3.98,4.02l-.75,139.56c-.01,2.2-1.8,3.98-4,3.98Z"/>
          <path class="cls-15" d="m122.62,605.29h-.02c-2.21-.01-3.99-1.81-3.98-4.02l.74-139.5c.01-2.2,1.8-3.98,4-3.98h.02c2.21.01,3.99,1.81,3.98,4.02l-.74,139.5c-.01,2.2-1.8,3.98-4,3.98Z"/>
          <path class="cls-15" d="m190.18,610.13h-.02c-2.21-.01-3.99-1.81-3.98-4.02l.73-139.43c.01-2.2,1.8-3.98,4-3.98h.02c2.21.01,3.99,1.81,3.98,4.02l-.73,139.43c-.01,2.2-1.8,3.98-4,3.98Z"/>
          <path class="cls-15" d="m257.81,605.76h-.02c-2.21-.01-3.99-1.81-3.98-4.02l.73-139.36c.01-2.2,1.8-3.98,4-3.98h.02c2.21.01,3.99,1.81,3.98,4.02l-.73,139.36c-.01,2.2-1.8,3.98-4,3.98Z"/>
          <path class="cls-15" d="m324.56,592.15h-.02c-2.21-.01-3.99-1.81-3.98-4.02l.74-139.29c.01-2.2,1.8-3.98,4-3.98h.02c2.21.01,3.99,1.81,3.98,4.02l-.74,139.29c-.01,2.2-1.8,3.98-4,3.98Z"/>
          <g>
            <path class="cls-9" d="m59.06,549.56c-1.83-.51-3.65-1.03-5.47-1.56-2.32-.68-4.2-3.17-4.19-5.52.1-18.05.19-36.09.29-54.14.01-2.35,1.92-3.7,4.23-3.03,1.82.53,3.64,1.05,5.47,1.56,2.32.65,4.22,3.08,4.21,5.43-.1,18.05-.19,36.09-.29,54.14-.01,2.35-1.93,3.76-4.25,3.12Z"/>
            <path class="cls-15" d="m60.16,553.72c-.71,0-1.44-.1-2.17-.3,0,0,0,0,0,0-1.84-.51-3.68-1.04-5.51-1.57-4.05-1.18-7.09-5.21-7.07-9.38l.29-54.15c.01-2.36,1.04-4.48,2.81-5.8,1.81-1.35,4.19-1.73,6.54-1.05,1.81.53,3.62,1.04,5.43,1.55,4.08,1.14,7.15,5.14,7.13,9.3l-.29,54.14c-.01,2.36-1.04,4.48-2.81,5.82-1.24.94-2.76,1.43-4.34,1.43Zm-6.47-64.3l-.29,53.1c0,.52.67,1.47,1.31,1.66,1.53.44,3.07.88,4.61,1.31l.28-53.19c0-.5-.64-1.38-1.28-1.56-1.55-.43-3.09-.87-4.64-1.32Z"/>
          </g>
          <g>
            <path class="cls-9" d="m125.63,563.25c-1.87-.25-3.73-.52-5.6-.79-2.37-.35-4.3-2.57-4.29-4.92.1-18.04.19-36.08.29-54.12.01-2.35,1.96-3.97,4.34-3.62,1.86.27,3.73.54,5.6.79,2.38.32,4.31,2.49,4.3,4.84-.09,18.04-.19,36.07-.29,54.11-.01,2.35-1.97,4.03-4.35,3.71Z"/>
            <path class="cls-15" d="m126.19,567.29c-.37,0-.73-.03-1.1-.08h0c-1.88-.25-3.76-.52-5.64-.79-4.35-.64-7.74-4.55-7.71-8.91l.29-54.11c.01-2.25.97-4.37,2.63-5.8,1.69-1.45,3.98-2.09,6.28-1.76,1.85.27,3.71.54,5.56.79,4.38.59,7.79,4.46,7.76,8.82l-.29,54.11c-.01,2.26-.98,4.39-2.64,5.83-1.41,1.23-3.24,1.89-5.14,1.89Zm-6.17-63.49l-.29,53.76c0,.34.45.88.87.95,1.78.26,3.57.51,5.36.76l.28-53.85c0-.31-.42-.8-.83-.85-1.8-.24-3.6-.5-5.4-.76Z"/>
          </g>
          <g>
            <path class="cls-9" d="m193.2,567.73c-1.88,0-3.76,0-5.64-.02-2.39-.02-4.35-1.98-4.33-4.33.09-18.03.19-36.06.28-54.09.01-2.35,1.98-4.23,4.38-4.21,1.88.02,3.76.03,5.65.02,2.4,0,4.34,1.9,4.33,4.24-.09,18.03-.19,36.06-.28,54.08-.01,2.35-1.98,4.29-4.38,4.3Z"/>
            <path class="cls-15" d="m192.11,571.73c-1.53,0-3.06,0-4.59-.02-4.6-.04-8.32-3.79-8.29-8.35l.28-54.09c.01-2.19.89-4.25,2.46-5.79,1.57-1.55,3.66-2.4,5.87-2.4h.09c1.86.02,3.73.03,5.6.02h.01c2.25,0,4.36.87,5.94,2.46,1.55,1.56,2.4,3.62,2.39,5.81l-.28,54.09c-.02,4.55-3.78,8.27-8.37,8.28h0c-.37,0-.74,0-1.11,0Zm-4.27-62.65c-.13,0-.22.05-.27.1-.06.06-.06.11-.06.13l-.28,54.08c0,.12.15.31.37.31,1.87.02,3.74.03,5.6.02h0c.22,0,.38-.19.39-.32l.28-54.08s0-.06-.06-.12c-.05-.05-.13-.1-.27-.1h0c-1.89,0-3.79,0-5.69-.02h0Z"/>
          </g>
          <g>
            <path class="cls-9" d="m260.82,562.99c-1.87.26-3.74.51-5.61.75-2.38.3-4.32-1.39-4.31-3.74.09-18.02.19-36.04.28-54.06.01-2.35,1.97-4.5,4.36-4.8,1.87-.24,3.74-.49,5.61-.74,2.38-.33,4.31,1.3,4.3,3.65-.1,18.02-.19,36.04-.29,54.06-.01,2.35-1.97,4.55-4.35,4.89Z"/>
            <path class="cls-15" d="m254.68,567.77c-1.93,0-3.79-.68-5.21-1.94-1.65-1.46-2.58-3.59-2.57-5.85l.28-54.06c.02-4.35,3.47-8.19,7.85-8.75,1.86-.24,3.71-.48,5.57-.74,2.3-.32,4.59.34,6.27,1.81,1.65,1.44,2.59,3.57,2.58,5.82l-.29,54.06c-.03,4.34-3.45,8.22-7.79,8.83,0,0,0,0,0,0-1.88.26-3.77.51-5.66.75-.35.04-.69.07-1.04.07Zm6.14-4.78h0,0Zm.63-58.59c-1.84.25-3.63.48-5.41.71-.42.05-.86.54-.86.85l-.28,53.78c1.82-.23,3.6-.47,5.37-.71.43-.06.9-.61.9-.95l.28-53.68Z"/>
          </g>
          <g>
            <path class="cls-9" d="m327.51,549.03c-1.83.52-3.66,1.02-5.5,1.52-2.34.63-4.24-.79-4.23-3.14.1-18.01.19-36.02.29-54.04.01-2.35,1.94-4.76,4.27-5.39,1.83-.49,3.67-1,5.5-1.51,2.33-.66,4.22.71,4.21,3.05-.1,18.01-.19,36.02-.29,54.03-.01,2.34-1.92,4.82-4.26,5.48Z"/>
            <path class="cls-15" d="m320.93,554.69c-1.6,0-3.13-.5-4.38-1.46-1.76-1.36-2.77-3.49-2.76-5.85l.29-54.04c.02-4.16,3.13-8.13,7.23-9.23,1.82-.49,3.64-.99,5.45-1.5,2.36-.67,4.75-.26,6.54,1.11,1.76,1.34,2.76,3.46,2.75,5.82l-.29,54.03c-.03,4.17-3.11,8.17-7.17,9.31-1.84.52-3.69,1.03-5.54,1.53-.71.19-1.42.29-2.12.29Zm7.12-64.13c-1.58.44-3.12.86-4.66,1.28-.65.17-1.31,1.05-1.31,1.55l-.28,53.07c1.57-.42,3.1-.85,4.63-1.28,0,0,0,0,0,0,.64-.18,1.33-1.12,1.34-1.65l.28-52.96Z"/>
          </g>
        </g>
      </g>
      <g>
        <rect class="cls-3" x="219.62" y="376.6" width="19.86" height="134.99" rx="9.93" ry="9.93" transform="translate(-205.92 198.59) rotate(-33.25)"/>
        <g class="cls-30">
          <path class="cls-18" d="m202.16,377.34c5.6,8.54,4.58,18.17-1.74,22.32-6.32,4.15-15.56,1.24-21.16-7.3-5.6-8.54-5.01-18.82,1.32-22.96s15.99-.59,21.58,7.95Z"/>
        </g>
        <path class="cls-3" d="m201.91,376.97c5.63,8.59,1.5,13.47-4.82,17.62-6.32,4.15-12.45,5.99-18.08-2.6-5.63-8.59-5.07-18.91,1.26-23.05s16.01-.55,21.64,8.04Z"/>
        <path class="cls-15" d="m261.16,506.15c-.96,0-1.92-.1-2.88-.3-3.65-.76-6.78-2.89-8.82-5.99l-62.99-96.07c-4.21-1.98-8.01-5.35-10.81-9.62-6.83-10.42-5.75-23.24,2.41-28.59,8.16-5.35,20.35-1.23,27.18,9.19h0c2.8,4.26,4.37,9.09,4.51,13.74l63,96.07c4.21,6.42,2.41,15.08-4.01,19.29-2.29,1.5-4.91,2.28-7.59,2.28Zm-74.9-134.95c-1.39,0-2.69.34-3.8,1.07-4.39,2.88-4.44,10.9-.11,17.52,2.18,3.33,5.15,5.86,8.35,7.12.88.35,1.61,1,2.06,1.83.08.15.16.3.26.45l63.13,96.28c.86,1.32,2.2,2.22,3.75,2.54,1.56.32,3.14.03,4.46-.83,2.73-1.79,3.5-5.48,1.71-8.21l-63.13-96.28c-.1-.15-.21-.29-.32-.43-.58-.74-.89-1.67-.86-2.61.12-3.44-1.02-7.17-3.2-10.5h0c-3.24-4.94-8.18-7.96-12.31-7.96Z"/>
      </g>
      <g>
        <path class="cls-5" d="m317.79,461.09c-12.24,4.98-57.38,15.18-77.64,9.23-15.7-4.61-22.56-15.45-23.44-20.82-1.27-7.74,3.77-16.48,12.85-22.26.82-.52,1.73-1.03,2.72-1.52,6.33-3.12,15.48-5.27,25.16-7.54,11.82-2.77,24.52-6.13,36.53-9.5,12.48-3.5,51.05-19.58,67.47,5.01,23.11,34.62-22.14,38.64-43.65,47.39Z"/>
        <path class="cls-28" d="m317.79,449.5c-12.24,4.98-57.38,15.18-77.64,9.23-12.05-3.54-18.87-9.74-21.8-15.32-1.56,3.35-2.17,2.81-1.64,6.1.88,5.37,7.73,16.21,23.44,20.82,20.27,5.95,65.4-4.25,77.64-9.23,19.43-7.91,58.24-11.96,48.5-38.2-6.68,13.66-33.42,20.47-48.5,26.61Z"/>
        <path class="cls-15" d="m256.12,476.13c-6.46,0-12.36-.58-17.1-1.97-17.21-5.05-25.13-17.13-26.26-24.01-1.53-9.32,4.22-19.63,14.65-26.28.96-.61,2-1.19,3.1-1.73,6.74-3.33,16.1-5.52,26.01-7.84,10.65-2.5,22.88-5.68,36.36-9.45,1.34-.38,3.04-.92,5-1.54,16.44-5.24,50.63-16.14,66.87,8.18,6.66,9.97,8.6,18.42,5.95,25.81-4.64,12.95-22.2,18.26-37.69,22.95-5.06,1.53-9.84,2.98-13.72,4.56-9.46,3.85-39.92,11.34-63.17,11.34Zm76.87-71.9c-11.69,0-24.16,3.97-32.67,6.69-2.04.65-3.8,1.21-5.27,1.62-13.59,3.81-25.93,7.02-36.69,9.54-9.45,2.22-18.38,4.31-24.3,7.23-.85.42-1.64.86-2.35,1.31-7.6,4.84-12.04,12.18-11.04,18.24.65,3.97,6.54,13.5,20.62,17.63,18.4,5.4,62.19-3.89,75.01-9.1h0c4.23-1.72,9.18-3.22,14.42-4.8,13.68-4.14,29.19-8.83,32.48-17.99,1.71-4.78,0-11.06-5.08-18.67-5.9-8.85-15.23-11.69-25.12-11.69Z"/>
        <path class="cls-19" d="m368.63,366.74s-16.7,12.26-39.08,23c-17.12,8.21-36.55,12.48-36.55,12.48l16.36,61.01s64.76-6.2,101.5-39.2c7.39-6.64,14.89-15.86,10.64-29.13-8.05-25.13-52.86-28.17-52.86-28.17Z"/>
        <path class="cls-15" d="m272.08,477.94c-1.83,0-3.47-1.26-3.89-3.11l-13.88-60.41c-.49-2.12.8-4.23,2.91-4.77.7-.18,69.84-18.05,102.75-44.12,1.73-1.37,4.25-1.08,5.62.65s1.08,4.25-.65,5.62c-30.1,23.85-86.7,40.42-101.96,44.6l12.16,52.91c13.32-2.53,59.58-11.86,95-25.56,2.06-.8,4.38.23,5.17,2.29.8,2.06-.23,4.38-2.29,5.17-42.35,16.38-99.66,26.57-100.24,26.67-.23.04-.47.06-.7.06Z"/>
        <g>
          <rect class="cls-19" x="252.43" y="403.9" width="61.48" height="74.2" transform="translate(-107.47 91.62) rotate(-15.49)"/>
          <rect class="cls-4" x="272.41" y="403.9" width="21.52" height="74.2" transform="translate(-107.47 91.62) rotate(-15.49)"/>
          <path class="cls-15" d="m263.45,488.96c-1.75,0-3.36-1.16-3.85-2.93l-19.81-71.51c-.28-1.02-.15-2.12.37-3.04.52-.92,1.39-1.6,2.41-1.88l59.25-16.42c1.03-.29,2.12-.15,3.04.37.92.52,1.6,1.39,1.88,2.41l19.81,71.51c.59,2.13-.66,4.33-2.79,4.92l-59.25,16.42c-.36.1-.72.15-1.07.15Zm-14.89-72.72l17.68,63.8,51.54-14.28-17.68-63.8-51.54,14.28Z"/>
        </g>
      </g>
      <path class="cls-5" d="m376.4,545.86c-29.43-28.49-91.24-21.47-111.25,29.4-11.5,29.24-11.53,47.28-11.53,47.28,0,0,66.83,7.92,99.15-26.74,31.43-33.7,23.64-49.94,23.64-49.94Z"/>
      <path class="cls-15" d="m266.83,577.8c-.54,0-1.09-.11-1.61-.34-2.02-.89-2.94-3.25-2.05-5.27,10.91-24.74,31.79-41.78,57.29-46.77,22.8-4.46,45.38,1.56,60.4,16.11,1.59,1.54,1.63,4.07.09,5.66-1.54,1.59-4.07,1.63-5.66.09-13.14-12.73-33.07-17.97-53.3-14.01-22.9,4.48-41.67,19.84-51.51,42.15-.66,1.5-2.13,2.39-3.66,2.39Z"/>
      <path class="cls-15" d="m113.48,596.94c-3.39-7.74-29.64-61.98-46.31-74.8-2.23-1.72-4.56-3.23-6.94-4.52-10.94-13.72-25.44-21.58-37.12-20.06-5.34.7-12.59,3.63-16.87,13.63-1.03,2.16-12.77,28.05-1.12,65.69,4.44,14.36,10.84,17,17.03,19.55,7.01,2.89,14.96,6.16,24.98,30.61.05.12.11.25.17.37,4.01,7.51,14.75,19.64,29.75,19.64,2.65,0,5.43-.38,8.32-1.23,11.9-3.48,23.55-7.67,28.2-14.71,7.06-10.71,3.03-27.03-.09-34.17Z"/>
      <g>
        <path class="cls-22" d="m84.62,578.47c-2.31-3.91-11.38-13.72-13.59-27.32-6.4-39.32-49.3-66.19-61.15-38.31,0,0-12.52,25.44-.95,62.85,8.76,28.31,22.73,3.1,41.9,49.82,0,0,12.33,23.36,33.42,16.46,28.09-9.19,19.03-31.94.37-63.5Z"/>
        <path class="cls-15" d="m76.65,647.23c-14.68,0-25.32-12.2-29.35-19.85-.06-.11-.12-.23-.16-.35-10.03-24.45-17.97-27.72-24.98-30.61-6.19-2.55-12.59-5.19-17.03-19.55-11.65-37.64.09-63.54,1.12-65.7,4.25-9.91,12.62-14.88,22.97-13.62,18.3,2.21,41.05,24.01,45.77,52.95,1.61,9.86,7.31,17.75,10.71,22.46,1.01,1.4,1.81,2.5,2.38,3.47h0c13.87,23.46,21.48,40.62,16.57,53.65-2.73,7.24-8.99,12.37-19.14,15.69-3.09,1.01-6.04,1.46-8.85,1.46Zm-22.2-23.44c1.09,1.98,11.58,19.94,28.56,14.38,7.7-2.52,12.33-6.09,14.14-10.91,3.77-10-3.66-25.92-15.97-46.76h0c-.38-.65-1.12-1.67-1.97-2.85-3.82-5.29-10.21-14.13-12.12-25.86-4.07-25.01-23.73-44.47-38.83-46.29-6.89-.84-11.83,2.16-14.69,8.9-.03.07-.06.14-.09.2-.11.23-11.63,24.62-.71,59.91,3.33,10.76,6.95,12.25,12.44,14.52,8.02,3.3,17.99,7.42,29.25,34.77Z"/>
      </g>
      <path class="cls-15" d="m77.13,571.65c-1.03-1.57-2.35-17.73-5.31-17.64-19.4,18.41-53.53,32-55.71,31.14-2.37.41-2.79,3.93-.55,4.86,0,0,10.88,4.06,14.2,6.6,1.21.92,31.32-7.28,47.37-24.96Z"/>
      <path class="cls-15" d="m103.23,611.46l-7.14-12.37c-.47-.81-1.37-1.32-2.33-1.28l-11.03.36c-.41.01-.81.12-1.17.32l-28.97,15.79c-1.24.67-1.68,2.2-.98,3.4l9.62,16.67c3.73,6.46,10.6,10.13,17.61,10.13,3.22,0,6.46-.77,9.44-2.4l7.61-4.15c9.48-5.17,12.77-17.05,7.33-26.48Z"/>
      <path class="cls-6" d="m350.18,264.49c-.62,0-1.17.02-1.61.06-1.54.13-2.9,1.04-3.6,2.42-.7,1.38-.63,3.02.17,4.33,1.71,2.79,5.26,6.57,9.51,10.12l1.12.95c31.99,27.28,56.41,33.01,71.26,33.01,5.47,0,10.78-.76,15.78-2.26,23.11-6.94,37.4-21.45,43.06-32.71,2.46-4.91,2.83-8.16,2.83-9.67,0-2.28-1.73-4.2-4-4.43-3.15-.32-10.8-.47-23.39-.47-6.54,0-13.99.04-21.9.08-8.99.05-18.59.09-28.17.09-17.67,0-42.96-.15-58.57-1.41-.86-.07-1.69-.1-2.48-.1h0Z"/>
      <path class="cls-2" d="m488.69,270.73c-.32-.03-57.64,54.91-137.54,2.04-16.35-10.82-6.17,2.23,4.61,10.26,52.45,45.98,101.91,41.84,130.1-1.96,3.11-7.33,9.18-8.21,2.83-10.34Z"/>
      <path class="cls-15" d="m278.51,582c-3.8-23.32-32.65-79.14-65.42-61.71-26.07,17.6-21.83,51.98-17.9,77.82,2.97,27.27-27.77,73.75,45.55,65.22,13.58-1.58,24.99-8.47,30.63-20.65,7.82-20.49,12.06-35.94,7.14-60.69Z"/>
      <g class="cls-29">
        <g>
          <path class="cls-17" d="m427.4,360.08c-1.03-2.33-3.12-3.86-5.45-4.27,1.26-2.01,1.53-4.58.5-6.91-1.65-3.72-6.01-5.4-9.73-3.75,0,0-3.75.8-5.4,6l-19.94,3.55-3.16,1.4-16.03,12.39c-4.97-2.26-8.08-.03-8.08-.03-3.72,1.65-5.4,6.01-3.75,9.73,1.03,2.33,3.12,3.86,5.45,4.27-1.26,2.01-1.53,4.58-.5,6.91,1.03,2.33,3.12,3.86,5.45,4.27-1.26,2.01-1.53,4.58-.5,6.91s3.12,3.86,5.45,4.27c-1.26,2.01-1.53,4.58-.5,6.91,1.61,3.64,5.82,5.32,9.48,3.85.11.46.25.93.45,1.38,1.65,3.72,6.01,5.4,9.73,3.75,1.2-.53,2.18-1.34,2.91-2.32.03.07.05.14.08.21,1.65,3.72,6.01,5.4,9.73,3.75,1.42-.63,2.53-1.66,3.28-2.89,1.68,1.36,3.9,1.92,6.07,1.49h0s0,0,0,0c.25-.05.5-.11.74-.18.27-.08.54-.17.81-.29h0s.07-.04.1-.05c.04-.02.07-.02.11-.04h0c.27-.12.52-.26.76-.4.22-.13.43-.28.63-.43,0,0,0,0,0,0h0c1.78-1.32,2.85-3.35,2.97-5.5,1.42.27,2.93.13,4.34-.49,3.72-1.65,5.4-6.01,3.75-9.73-.03-.07-.07-.13-.1-.2,1.22.11,2.48-.07,3.67-.6,3.72-1.65,5.4-6.01,3.75-9.73-.2-.45-.44-.87-.72-1.26,3.55-1.73,5.13-5.97,3.52-9.61-1.03-2.33-3.12-3.86-5.45-4.27,1.26-2.01,1.53-4.58.5-6.91s-3.12-3.86-5.45-4.27c1.26-2.01,1.53-4.58.5-6.91Z"/>
          <path class="cls-10" d="m400.63,424c-2.81,0-5.5-1.42-7.06-3.86-.67.62-1.44,1.12-2.27,1.49-4.22,1.87-9.18-.04-11.05-4.26-.07-.17-.14-.34-.21-.51-3.92,1.02-8.05-.91-9.73-4.71-.95-2.14-.95-4.55-.05-6.67-2.17-.76-3.96-2.38-4.9-4.52-.95-2.14-.95-4.55-.05-6.67-2.17-.75-3.96-2.38-4.9-4.52-.95-2.14-.95-4.55-.05-6.67-2.17-.76-3.96-2.38-4.9-4.52-1.86-4.19.02-9.11,4.18-11.01.6-.39,3.73-2.14,8.42-.25l15.56-12.03c.06-.05.13-.09.21-.12l3.16-1.4c.07-.03.15-.06.23-.07l19.36-3.45c1.74-4.75,5.15-5.89,5.83-6.07,4.2-1.81,9.11.1,10.97,4.3.95,2.14.95,4.55.05,6.67,2.17.76,3.96,2.38,4.9,4.52h0c.95,2.14.95,4.55.05,6.67,2.17.76,3.96,2.38,4.9,4.52.95,2.14.95,4.55.05,6.67,2.17.76,3.96,2.38,4.9,4.52,1.68,3.8.34,8.15-3.04,10.37.09.16.17.33.24.5,1.87,4.22-.04,9.18-4.26,11.05-.84.37-1.73.6-2.63.68,1.06,3.92-.86,8.15-4.69,9.85-1.22.54-2.54.78-3.88.69-.38,2.06-1.53,3.91-3.25,5.19-.23.17-.47.34-.72.49-.26.16-.55.32-.86.46-.02,0-.07.03-.11.04-.04.02-.07.04-.1.05-.31.14-.62.25-.94.34-.27.08-.55.15-.83.2-.01,0-.02,0-.04,0-2.08.41-4.22.01-5.99-1.08-.83,1.04-1.9,1.87-3.12,2.41-1.1.49-2.25.72-3.38.72Zm-6.83-6.6s.09,0,.13,0c.36.05.66.28.8.62,0,.01.04.11.04.12,1.45,3.27,5.22,4.73,8.43,3.3,1.17-.52,2.16-1.38,2.84-2.5.15-.25.4-.41.68-.46.28-.05.58.03.8.21,1.47,1.19,3.38,1.66,5.25,1.29,0,0,.02,0,.03,0,.21-.04.41-.09.61-.15.25-.07.48-.15.7-.25,0,0,.05-.03.1-.05.03-.01.12-.04.15-.06.19-.08.4-.2.6-.33.21-.12.39-.25.56-.38,1.53-1.13,2.46-2.87,2.57-4.75.02-.29.16-.55.38-.73s.51-.25.8-.19c1.28.24,2.58.09,3.75-.42,3.21-1.42,4.67-5.2,3.24-8.41,0-.01-.08-.16-.09-.17-.16-.33-.12-.71.08-1,.21-.3.55-.46.91-.42,1.08.1,2.18-.08,3.17-.52,3.21-1.42,4.67-5.2,3.24-8.41-.17-.38-.38-.75-.62-1.09-.17-.24-.22-.54-.15-.82.07-.28.27-.52.53-.65,3.1-1.51,4.44-5.16,3.04-8.3-.86-1.94-2.62-3.32-4.71-3.69-.33-.06-.6-.28-.74-.58s-.11-.65.07-.94c1.13-1.8,1.29-4.03.43-5.97s-2.62-3.32-4.71-3.69c-.33-.06-.6-.28-.74-.58s-.11-.65.07-.94c1.13-1.8,1.29-4.03.43-5.97h0c-.86-1.94-2.62-3.32-4.71-3.69-.33-.06-.6-.28-.74-.58s-.11-.66.07-.94c1.13-1.8,1.29-4.03.43-5.97-1.42-3.21-5.2-4.67-8.41-3.24-.06.03-.13.05-.2.06-.12.03-3.22.8-4.66,5.33-.11.35-.41.62-.78.68l-19.82,3.53-2.94,1.3-15.93,12.32c-.29.23-.69.27-1.03.12-4.33-1.97-6.97-.19-7.08-.12-.05.04-.11.07-.17.1-3.21,1.42-4.67,5.2-3.24,8.41.86,1.94,2.62,3.32,4.71,3.69.33.06.6.28.74.58s.11.65-.07.94c-1.13,1.8-1.29,4.03-.43,5.97.86,1.94,2.62,3.32,4.71,3.69.33.06.6.28.74.58s.11.65-.07.94c-1.13,1.8-1.29,4.03-.43,5.97.86,1.94,2.62,3.32,4.71,3.69.33.06.6.28.74.58s.11.65-.07.94c-1.13,1.8-1.29,4.03-.43,5.97,1.4,3.15,4.99,4.61,8.2,3.33.27-.11.58-.09.84.04.26.14.45.38.51.66.09.42.23.82.39,1.19,1.42,3.21,5.2,4.67,8.41,3.24.99-.44,1.86-1.13,2.51-2,.19-.25.49-.4.8-.4Z"/>
        </g>
      </g>
      <path class="cls-15" d="m427.02,319.37c-15.52,0-40.93-5.89-73.85-33.96l-1.11-.94c-4.61-3.84-8.39-7.89-10.34-11.08-1.54-2.52-1.66-5.6-.33-8.23,1.34-2.63,3.89-4.35,6.83-4.6,1.33-.11,3.03-.1,4.75.04,15.45,1.25,40.64,1.4,58.25,1.4,9.6,0,19.03-.05,28.15-.09,7.92-.04,15.37-.08,21.92-.08,12.91,0,20.47.16,23.79.49,4.33.44,7.6,4.05,7.6,8.41,0,2.27-.57,6.1-3.26,11.46-6.04,12.01-21.16,27.45-45.49,34.75-5.38,1.61-11.07,2.43-16.93,2.43Zm-76.84-50.88c-.6,0-1.03.03-1.28.05-.16.01-.29.1-.36.24-.07.14-.06.3.02.44,1.47,2.4,4.79,5.9,8.66,9.13l1.14.97c31.08,26.5,54.49,32.06,68.67,32.06,5.08,0,10-.7,14.63-2.09,21.89-6.57,35.35-20.15,40.64-30.68,2.17-4.32,2.4-6.94,2.4-7.87,0-.23-.17-.42-.4-.45-2.96-.3-10.7-.45-22.99-.45-6.54,0-13.97.04-21.88.08-9.13.05-18.57.09-28.19.09-17.74,0-43.15-.15-58.89-1.42-.75-.06-1.48-.09-2.16-.09Z"/>
      <g>
        <path class="cls-19" d="m187.55,92.9c-34.72,5.95-79.03,19.36-77.84,26.33,8.57,50,31.35,88.19,39.92,138.19,43.13,6.27,82.41-7.05,127.08-24.77-8.57-50,1.57-90.85-7-140.85-1.19-6.97-47.45-4.86-82.16,1.1Z"/>
        <path class="cls-17" d="m269.71,91.81c-.77-4.51-20.46-5.22-43.66-3.53,4.75.7,7.68,1.85,7.97,3.53,8.57,50,6.92,90.2,15.5,140.2-30.57,12.12-67.12,25.8-95.61,28.94,41.46,4.82,79.62-8.2,122.8-25.32-8.57-50,1.57-93.81-7-143.81Z"/>
        <path class="cls-8" d="m187.55,95.75c-34.72,5.95-79.03,19.36-77.84,26.33,8.57,50,31.35,79.92,39.92,129.92,43.13,6.27,87.14-1.27,125.72-21.55-8.57-50,2.94-85.8-5.63-135.8-1.19-6.97-47.45-4.86-82.16,1.1Z"/>
        <path class="cls-8" d="m187.55,95.75c-34.72,5.95-79.03,19.36-77.84,26.33,8.57,50,31.35,79.92,39.92,129.92,43.13,6.27,87.14-1.27,125.72-21.55-8.57-50,2.94-85.8-5.63-135.8-1.19-6.97-47.45-4.86-82.16,1.1Z"/>
        <path class="cls-4" d="m141.49,111.3c-9.14,2.85-15.39,5.29-19.49,7.21l49.42,105.68,26.24-4.5,11.91-122.8c-6.7.79-13.34,1.74-19.53,2.8-15.71,2.69-33.87,7.03-48.56,11.61Z"/>
        <g>
          <path class="cls-8" d="m269.21,165.02c.38-21.88.77-44.51-3.3-68.8-2.13-1.02-10-2.43-28.04-1.75-15.38.58-33.94,2.53-49.66,5.23-15.71,2.69-33.87,7.03-48.56,11.61-17.24,5.37-24.19,9.32-25.85,10.99,4.26,24.31,12.07,46.29,19.63,67.55,3.67,10.33,7.4,20.84,10.77,31.72,41.45-3.16,83.43-11.7,124.91-25.62-.25-10.54-.08-20.82.09-30.93Z"/>
          <path class="cls-8" d="m151.59,282.77c4.33,6.01,15.17,6.38,23.49,5.64,33.8-3.03,59.18-17.16,71.3-25.3,10.41-7,17.37-13.62,21.51-18.58-38.73,11.45-77.9,18.21-116.65,20.27-1.78,5.45-3.2,13.06.34,17.98Z"/>
          <path class="cls-23" d="m272.71,235.68c-.03-.12-.06-.24-.08-.36-2.29-13.66-3.2-26.71-3.51-39.37-41.48,13.92-83.46,22.46-124.91,25.62,3.59,11.6,6.78,23.62,9.06,36.33.14.78.04,1.58-.27,2.3-.51,1.16-1.15,2.75-1.75,4.59,38.75-2.07,77.92-8.83,116.65-20.27,3.31-3.97,4.82-6.88,4.82-8.05v-.78Z"/>
        </g>
        <path class="cls-11" d="m149.63,252.01v8.27c34.65,3.38,91.12-10.39,127.08-24.65-2.35-13.72-3.29-27.98-3.6-41.02-9.16,3.15-18.34,6.04-27.54,8.66,1.03,8.98,2.3,18.18,3.94,27.74-30.99,16.71-99.88,21-99.88,21Z"/>
        <path class="cls-8" d="m187.55,95.75c-34.72,5.95-79.03,19.36-77.84,26.33,8.57,50,31.35,88.19,39.92,138.19,43.13,6.27,82.41-7.05,127.08-24.77-8.57-50,1.57-90.85-7-140.85-1.19-6.97-47.45-4.86-82.16,1.1Z"/>
        <path class="cls-15" d="m276.71,234.62c-94.68,27.36-127.34,23.87-127.34,23.87-6.07,13.87-10.05,37.14,26.06,33.9,60.11-5.4,101.27-45.21,101.27-55.92,0-.96,0-1.87,0-1.84Z"/>
        <path class="cls-15" d="m169.07,296.69c-11.5,0-19.55-3.1-23.98-9.24-6.55-9.08-3.01-21.83.08-29.31-4.33-23.52-11.93-44.92-19.28-65.61-7.76-21.84-15.78-44.42-20.13-69.76-.82-4.79,4.32-8.1,8.89-10.45,4.59-2.36,11.07-4.91,19.27-7.58,15.65-5.09,35.44-9.92,52.95-12.92,17.51-3,37.78-5.04,54.23-5.45,8.62-.22,15.58.03,20.69.73,5.09.7,11.04,2.11,11.86,6.89,4.35,25.37,3.95,48.66,3.56,71.17-.37,21.58-.76,43.89,3.13,67.8.14.31.24.63.3.98.05.27.07.53.06.79v.69s0,.06,0,.09v.95c0,14.64-45.41,54.57-104.92,59.91-2.36.21-4.6.32-6.72.32Zm-55.27-174.4c4.26,24.31,12.07,46.29,19.63,67.55,7.58,21.34,15.43,43.42,19.83,68.05.14.78.04,1.58-.27,2.3-2,4.59-6.15,15.99-1.4,22.57,4.33,6.01,15.17,6.38,23.49,5.64,33.8-3.03,59.18-17.16,71.3-25.3,18.75-12.6,26.33-24.01,26.33-26.64v-.78c-.03-.12-.06-.24-.08-.36-4.19-25.03-3.8-48.04-3.41-70.3.38-21.88.77-44.51-3.3-68.8-2.13-1.02-10-2.43-28.04-1.75-15.38.58-33.94,2.53-49.66,5.23-15.71,2.69-33.87,7.03-48.56,11.61-17.24,5.37-24.19,9.32-25.85,10.99Zm166.9,113.21h0,0Z"/>
        <path class="cls-26" d="m233.9,59.29c28.95,9.43,19.34,51.71-11.07,51.68,27.54,23.9-16.85,52.22-41.53,38.11-.99,4.33.57,48.19,8.22,67.66,0,0-.91,1.5-1.9,1.73-.87.2-3.17-.39-3.17-.39-10.38-15.8-41.14-76.08-28.91-139.67,23.27-120.94,146.44-69.67,78.36-19.12Z"/>
        <path class="cls-14" d="m227.37,55.29c28.95,9.43,19.34,51.71-11.07,51.68,27.54,23.9-16.85,52.22-41.53,38.11-.99,4.33.57,48.19,8.22,67.66,0,0-.91,1.5-1.9,1.73-.87.2-3.17-.39-3.17-.39-10.38-15.8-41.14-76.08-28.91-139.67,23.27-120.94,146.44-69.67,78.36-19.12Z"/>
        <g>
          <path class="cls-24" d="m205.49,220.96c2.35,13.72-6.61,25.76-18.96,26.81-11.32.96-21.46-7.82-23.47-19.54-2.01-11.72,4.63-23.37,15.62-26.24,12-3.13,24.46,5.24,26.81,18.96Z"/>
          <path class="cls-14" d="m179.2,205.04c2.46-.61,4.98-.68,7.49-.19,1.22.24,2.44.61,3.6,1.11,1.17.5,2.3,1.12,3.36,1.86,1.07.74,2.08,1.6,3,2.56.93.97,1.78,2.04,2.51,3.19,1.53,2.4,2.57,5.09,3.06,7.96.49,2.88.41,5.75-.23,8.53-.31,1.33-.75,2.62-1.3,3.84-.55,1.21-1.21,2.35-1.98,3.41-.76,1.05-1.62,2.02-2.55,2.87-.94.86-1.96,1.61-3.03,2.24-2.2,1.3-4.61,2.07-7.13,2.31-2.48.24-4.93-.05-7.28-.84-1.12-.38-2.21-.87-3.25-1.46-1.02-.58-2-1.27-2.91-2.04-.9-.77-1.75-1.62-2.51-2.54-.77-.93-1.46-1.93-2.06-2.98-1.24-2.17-2.08-4.54-2.51-7.05-.43-2.51-.42-5.02.02-7.48.21-1.19.53-2.36.95-3.49.41-1.12.92-2.21,1.52-3.23.6-1.03,1.3-2,2.06-2.89.78-.9,1.65-1.73,2.58-2.46,1.96-1.53,4.17-2.62,6.58-3.22m-.22-1.27c-10.19,2.58-16.38,13.35-14.52,24.22,1.86,10.87,11.29,18.96,21.76,18,11.34-1.04,19.51-12.14,17.36-24.71-2.16-12.57-13.55-20.32-24.59-17.52h0Z"/>
          <path class="cls-14" d="m167.31,227.51c1.13,6.57,5.49,11.83,11.04,13.99l-10.95-20.99c-.45,2.23-.5,4.6-.09,7Zm26.54-5.5c-.39-2.27-1.44-3.69-2.31-4.78-1.13-1.33-2.17-2.43-2.43-3.93-.29-1.67.64-3.48,2.35-3.86.08-.02.15-.02.23-.04-3.58-2.28-7.87-3.13-12.11-2.11-5.48,1.32-9.6,5.46-11.45,10.61.35-.06.67-.12.95-.18,1.55-.32,3.94-1.05,3.94-1.05.81-.23,1.14,1.11.34,1.39,0,0-.8.28-1.7.51l8.8,17.64,1.54-11.98-3.76-6.99c-.86.12-1.67.17-1.67.17-.85.12-.99-1.32-.15-1.45,0,0,2.63-.32,4.2-.65,1.69-.35,4.31-1.14,4.31-1.14.89-.24,1.24,1.15.36,1.45,0,0-.88.3-1.86.55l9.4,18.27.78-6.2c.36-2.74.51-4.67.24-6.24Zm-10.7,4.37l-2.21,15.87c1.51.31,3.07.4,4.67.23,1.92-.2,3.73-.76,5.38-1.6-.06-.07-.11-.15-.16-.23l-7.68-14.27Zm12.95-12.98c.18.58.33,1.2.45,1.89.32,1.89.34,4.07-.23,6.89l-2.62,16.95c4.72-3.8,7.34-10.29,6.16-17.2-.56-3.26-1.89-6.16-3.76-8.53Z"/>
        </g>
        <path class="cls-21" d="m164.14,261.97c-5.44.32-8.88.27-10.61.2-.84-.04-1.6.45-1.92,1.23-5.77,13.59-9.02,29.15,38.36,24.28,1.36-.14-34.27-7.15-24.9-24.2.38-.7-.13-1.55-.93-1.5Z"/>
      </g>
      <path class="cls-15" d="m65.81,648.59c-10,0-18.43-6.79-22.11-13.36l-7.91-14.11c-1.08-1.93-.39-4.36,1.53-5.45l37.52-21.04c.53-.3,1.12-.47,1.72-.5.51-.14,1.04-.23,1.57-.25l11.03-.37c2.42-.1,4.73,1.18,5.95,3.35l7.14,12.73h0c6.4,11.42,2.92,23.07-8.87,29.68-.18.1-.36.18-.55.26-5.62,2.11-14.71,5.6-16.69,6.58-3.54,1.74-7.02,2.49-10.33,2.49Zm-21.08-27.9l5.96,10.62c3.13,5.57,11.84,12.57,21.93,7.61,2.83-1.39,14.7-5.87,17.12-6.78,7.69-4.43,9.71-11.21,5.54-18.64l-6.71-11.97-9.81.33c-.36.19-.75.32-1.14.39l-32.89,18.44Zm34.34-19h0s0,0,0,0Zm10.41-.19h-.03s.02,0,.03,0Z"/>
      <g>
        <path class="cls-22" d="m51.63,635.28c5.57,9.66,16.78,13.84,25.04,9.33l7.61-4.15c8.26-4.5,10.44-15.98,4.87-25.64l-8.36-14.5-37.52,20.45,8.36,14.5Z"/>
        <path class="cls-15" d="m69.48,650.41c-8.12,0-16.53-4.84-21.31-13.13l-8.36-14.5c-.54-.93-.68-2.04-.39-3.08.29-1.04.99-1.91,1.94-2.43l37.52-20.45c1.91-1.04,4.29-.37,5.38,1.51l8.36,14.5c3.51,6.09,4.53,13.14,2.78,19.35-1.45,5.17-4.72,9.36-9.2,11.8l-7.61,4.15c-2.84,1.55-5.95,2.28-9.11,2.28Zm-20.69-28.07l6.31,10.95h0c4.48,7.78,13.3,11.28,19.66,7.82l7.61-4.15c3.3-1.8,4.72-4.77,5.33-6.94,1.17-4.14.43-8.95-2.01-13.19l-6.41-11.12-30.49,16.62Z"/>
      </g>
      <g>
        <path class="cls-22" d="m201.19,513.86s-19.7,19.51-18.36,55.44c.94,25.21,15.19,7.23,11.49,54.42-1.7,21.66,11.48,34.38,41.13,34.9,9.28.16,15.45-22.74,20.25-62.16.51-4.19,2.12-12.59,0-30.5-4.28-36.25-29.2-72.42-54.51-52.1Z"/>
        <path class="cls-15" d="m235.57,662.63c-.06,0-.13,0-.19,0-17.26-.3-29.81-4.64-37.3-12.88-5.99-6.59-8.6-15.45-7.74-26.33,2.07-26.44-1.5-30.78-4.96-34.97-2.86-3.47-6.11-7.41-6.54-18.99-1.39-37.26,18.69-57.58,19.54-58.43.1-.1.2-.19.31-.28,8.56-6.87,17.89-8.54,26.99-4.82,18.6,7.61,31.18,35.72,34,59.56,1.97,16.69.8,25.46.17,30.17-.06.47-.12.9-.17,1.29-5.74,47.21-12.51,65.68-24.09,65.68Zm-31.69-145.8c-1.63,1.73-18.25,20.22-17.06,52.32.33,8.88,2.27,11.22,4.72,14.2,5.32,6.46,8.92,13.16,6.76,40.69-.67,8.59,1.24,15.43,5.69,20.32,5.95,6.55,16.56,10,31.52,10.27h.02c1.72,0,4.81-3.51,7.89-13.42,3.08-9.94,5.8-24.73,8.29-45.22.05-.42.11-.88.18-1.38.58-4.36,1.67-12.48-.18-28.17-2.92-24.68-15.42-47.51-29.08-53.1-6.27-2.56-12.58-1.39-18.76,3.5Z"/>
      </g>
      <path class="cls-15" d="m253.32,579.96c-.66-.48-1.51-.62-2.29-.38-27.68,8.73-66.09-3.38-66.48-3.5-.98-.31-2.06-.01-2.73.77-.67.78-.81,1.89-.35,2.82l6.27,12.6c.27.54.72.97,1.27,1.21.92.4,16.46,7.03,36.4,7.03,8.55,0,17.91-1.22,27.27-4.67,1.01-.37,1.68-1.33,1.68-2.41v-11.4c0-.82-.39-1.59-1.05-2.07Z"/>
      <path class="cls-15" d="m255.47,617.06c-.09-.87-.61-1.64-1.38-2.03s-1.7-.38-2.46.06l-10.16,5.89-39.35-2.25h0c-.68-.04-1.35.19-1.85.65-.51.45-.82,1.09-.85,1.77l-.75,13.44c-.72,12.86,8.37,23.37,21.17,24.09l10.26.57c.07,0,.13,0,.2,0,6.55-.14,11.99-2.6,16.16-7.29,11.52-12.99,9.14-33.8,9.03-34.89Z"/>
      <path class="cls-15" d="m257.99,616.63c-.26-1.1-1.22-1.9-2.36-1.97l-56.21-3.13c-.5-.03-1,.09-1.43.34l-11.95,6.92c-.98.57-1.47,1.72-1.21,2.82.26,1.1,1.22,1.9,2.36,1.97l56.21,3.13c.5.03,1-.09,1.43-.34l11.95-6.92c.98-.57,1.47-1.72,1.21-2.82Z"/>
      <g>
        <path class="cls-22" d="m209.14,659.92l11.39.64c25.51,1.42,24.47-35.99,24.47-35.99l-56.18-3.13s-2.08,37.24,20.32,38.49Z"/>
        <path class="cls-15" d="m221.96,664.6c-.54,0-1.09-.02-1.64-.05l-11.39-.64c-26.08-1.45-24.18-41.02-24.09-42.71.06-1.06.54-2.05,1.33-2.76.79-.71,1.84-1.07,2.89-1.01l56.18,3.13c2.08.12,3.72,1.8,3.78,3.88.03.92.5,22.68-10.91,33.77-4.35,4.23-9.78,6.38-16.14,6.38Zm-29.15-38.94c.22,8.88,2.28,29.47,16.56,30.27h0l11.39.64c4.82.26,8.66-1.06,11.76-4.08,6.08-5.92,8-17.33,8.41-24.15l-48.12-2.68Z"/>
      </g>
      <g>
        <rect class="cls-3" x="27.46" y="268.11" width="19.86" height="134.99" rx="9.93" ry="9.93" transform="translate(125.96 9.75) rotate(21.56)"/>
        <g class="cls-31">
          <path class="cls-18" d="m76.16,274.76c-3.75,9.49-12.21,14.21-19.24,11.44-7.03-2.78-9.98-12.01-6.23-21.5,3.75-9.49,12.49-14.93,19.53-12.15,7.03,2.78,9.69,12.73,5.94,22.22Z"/>
        </g>
        <path class="cls-3" d="m76.33,274.34c-3.77,9.55-10.14,8.99-17.18,6.21-7.03-2.78-12.07-6.73-8.29-16.27,3.77-9.55,12.53-15.04,19.57-12.26,7.03,2.78,9.68,12.77,5.9,22.32Z"/>
        <path class="cls-15" d="m16.22,403.07c-1.7,0-3.43-.31-5.1-.97-3.45-1.36-6.17-4-7.65-7.42-1.48-3.42-1.55-7.21-.18-10.66l42.22-106.84c-.81-4.58-.24-9.63,1.63-14.37,2.14-5.41,5.75-9.91,10.16-12.67,4.8-3.01,9.98-3.66,14.6-1.83,9.07,3.58,12.73,15.93,8.15,27.51h0c-1.87,4.74-4.91,8.81-8.63,11.61l-42.22,106.84c-2.16,5.47-7.42,8.81-12.97,8.81Zm50.37-147.78c-2.08,0-3.95.93-5.04,1.62-2.93,1.84-5.47,5.06-6.96,8.83-1.46,3.7-1.82,7.58-1.01,10.93.22.92.11,1.89-.31,2.74-.08.16-.16.32-.22.48l-42.31,107.07c-.58,1.46-.55,3.07.08,4.53.63,1.46,1.79,2.58,3.25,3.16,3.04,1.2,6.49-.29,7.69-3.34l42.31-107.07c.07-.17.12-.34.17-.5.27-.91.85-1.69,1.64-2.21,2.88-1.89,5.27-4.97,6.74-8.67,2.91-7.35,1.23-15.2-3.65-17.13-.8-.32-1.6-.44-2.37-.44Zm9.74,19.04h0,0Z"/>
      </g>
      <path class="cls-5" d="m56.76,345.13s-5.88-7.63-13.51-7.3c-4.41.19-13.41,6.38-6.09,17.43,2.14,3.23,10.73,7.06,10.73,7.06,0,0,4.07,1.4,9.03-4.18,5.92-6.66-.17-13.01-.17-13.01Z"/>
      <path class="cls-15" d="m48.5,367.83c-.46,0-.93-.08-1.39-.25-6.43-2.38-16.9-9.13-15.39-19.33,1.05-7.07,4.68-10.08,7.55-11.36,9.18-4.1,22.2,4.22,23.65,5.18,1.84,1.22,2.35,3.7,1.13,5.54-1.22,1.84-3.7,2.35-5.54,1.13-3.46-2.27-11.9-6.37-15.98-4.55-.56.25-2.26,1.01-2.89,5.22-.92,6.22,10.14,10.61,10.25,10.65,2.07.77,3.13,3.07,2.36,5.14-.6,1.61-2.13,2.61-3.75,2.61Z"/>
      <g>
        <path class="cls-5" d="m424.44,355.08c-1.03-2.33-3.12-3.86-5.45-4.27,1.26-2.01,1.53-4.58.5-6.91-1.65-3.72-6.01-5.4-9.73-3.75,0,0-3.75.8-5.4,6l-19.94,3.55-3.16,1.4-16.03,12.39c-4.97-2.26-8.08-.03-8.08-.03-3.72,1.65-5.4,6.01-3.75,9.73,1.03,2.33,3.12,3.86,5.45,4.27-1.26,2.01-1.53,4.58-.5,6.91s3.12,3.86,5.45,4.27c-1.26,2.01-1.53,4.58-.5,6.91s3.12,3.86,5.45,4.27c-1.26,2.01-1.53,4.58-.5,6.91,1.61,3.64,5.82,5.32,9.48,3.85.11.46.25.93.45,1.38,1.65,3.72,6.01,5.4,9.73,3.75,1.2-.53,2.18-1.34,2.91-2.32.03.07.05.14.08.21,1.65,3.72,6.01,5.4,9.73,3.75,1.42-.63,2.53-1.66,3.28-2.89,1.68,1.36,3.9,1.92,6.07,1.49h0s0,0,0,0c.25-.05.5-.11.74-.18.27-.08.54-.17.81-.29h0s.07-.04.1-.05c.04-.02.07-.02.11-.04h0c.27-.12.52-.26.76-.4.22-.13.43-.28.63-.43,0,0,0,0,0,0h0c1.78-1.32,2.85-3.35,2.97-5.5,1.42.27,2.93.13,4.34-.49,3.72-1.65,5.4-6.01,3.75-9.73-.03-.07-.07-.13-.1-.2,1.22.11,2.48-.07,3.67-.6,3.72-1.65,5.4-6.01,3.75-9.73-.2-.45-.44-.87-.72-1.26,3.55-1.73,5.13-5.97,3.52-9.61-1.03-2.33-3.12-3.86-5.45-4.27,1.26-2.01,1.53-4.58.5-6.91s-3.12-3.86-5.45-4.27c1.26-2.01,1.53-4.58.5-6.91Z"/>
        <g>
          <path class="cls-24" d="m366.59,370.46c.34-.75,0-1.64-.75-1.98-.75-.34-1.64,0-1.99.74-.01.03-1.52,3.27-4.38,4.92-2.69,1.55-4.67,1.11-4.73,1.09,1.1,1.18,2.54,1.97,4.1,2.25-.06.1-.11.2-.16.3.71-.24,1.48-.57,2.29-1.03,3.71-2.14,5.54-6.11,5.62-6.28Z"/>
          <path class="cls-24" d="m371.84,381.63c.31-.77-.06-1.64-.83-1.95-.77-.31-1.64.06-1.95.82-.01.03-1.31,3.13-4.11,4.84-2.66,1.62-4.64,1.21-4.7,1.2-.15-.04-.3-.04-.45-.03,1.09,1.13,2.5,1.88,4.01,2.15-.11.18-.21.38-.31.57.91-.25,1.92-.66,3.01-1.32,3.67-2.24,5.27-6.11,5.33-6.27Z"/>
          <path class="cls-24" d="m376.9,392.5c.31-.76-.06-1.63-.82-1.95-.76-.31-1.64.05-1.96.81-.01.03-1.13,2.64-4.32,4.6-2.67,1.64-4.66,1.3-4.72,1.29-.24-.05-.48-.03-.7.03,1.09,1.31,2.6,2.19,4.23,2.51.84-.27,1.77-.67,2.76-1.27,4.07-2.5,5.47-5.88,5.53-6.02Z"/>
          <path class="cls-24" d="m415.55,349.28c-2.99.96-4.86.28-4.97.24-.76-.31-1.63.05-1.95.8-.32.76.04,1.64.8,1.97.18.08,1.28.51,3.07.51,1.09,0,2.43-.16,3.98-.66,1.05-.34,1.98-.79,2.77-1.26-.08-.02-.17-.05-.25-.06.82-1.31,1.21-2.87,1.1-4.45-.61.67-2.16,2.15-4.54,2.92Z"/>
          <path class="cls-24" d="m415.12,360.4c-.75-.33-1.63,0-1.97.76-.34.75,0,1.64.75,1.98.19.08,1.38.58,3.33.58,1.04,0,2.29-.14,3.72-.56,1.12-.33,2.13-.74,3.03-1.16,0,0-.01,0-.02,0,.75-1.2,1.14-2.6,1.12-4.04-.98.64-2.77,1.67-4.98,2.33-3.01.89-4.86.16-4.97.12Z"/>
          <path class="cls-24" d="m419.74,370.87c-.75-.32-1.63,0-1.97.76-.34.75,0,1.64.75,1.98.18.08,1.5.63,3.97.63.75,0,1.59-.05,2.55-.18,1.42-.19,2.76-.57,3.92-1,.67-1.12,1.04-2.4,1.06-3.71-1.2.59-3.21,1.45-5.38,1.74-3.2.43-4.84-.2-4.9-.23Z"/>
          <path class="cls-24" d="m382.35,402.43c.13-.82-.43-1.58-1.24-1.71-.83-.13-1.59.42-1.72,1.24,0,.03-.54,3.15-2.82,5.43-2.17,2.18-4.31,2.3-4.39,2.31-.37,0-.7.16-.95.38,1.76,1.04,3.92,1.34,5.97.7.49-.36,1-.77,1.5-1.27,2.98-2.99,3.63-6.91,3.66-7.08Z"/>
          <path class="cls-24" d="m392.04,405.66c-.32-.75-1.19-1.09-1.95-.79-.76.31-1.12,1.19-.82,1.95.03.07.67,1.74-.3,4.26-1,2.61-4.21,4.36-4.23,4.38-.35.19-.59.49-.71.83,1.28.16,2.62,0,3.89-.57,1.2-.53,2.18-1.34,2.91-2.32.03.07.05.14.08.21.02.04.04.07.05.1.31-.49.59-1.01.81-1.56,1.4-3.65.38-6.21.26-6.49Z"/>
          <path class="cls-24" d="m423.35,397.73c-2.81-2.59-4.97-2.82-5.21-2.83-.79-.06-1.5.54-1.58,1.35-.08.81.52,1.54,1.33,1.64.01,0,1.42.2,3.42,2.05,2.01,1.86,2.69,4.01,2.9,4.91.82-1.84.9-4.01.02-6-.03-.07-.07-.13-.1-.2.04,0,.07,0,.11,0-.27-.31-.56-.61-.89-.92Z"/>
          <path class="cls-24" d="m425.73,386.82c.58.13,1.24.34,1.95.66,2.81,1.26,3.59,3.11,3.61,3.17.16.42.49.72.88.87.03-1.07-.16-2.16-.62-3.21-.2-.45-.44-.87-.72-1.26.17-.08.34-.18.5-.28-.94.23-1.89.32-2.74.32-1.31,0-2.39-.18-2.87-.27Z"/>
          <path class="cls-24" d="m424.36,384.96c.19-.81.99-1.3,1.8-1.12,0,0,.06.01.16.03-2.48-.55-4.13-.1-4.36-.03-.79.24-1.22,1.06-.99,1.85.23.79,1.06,1.25,1.85,1.03.06-.02,1.15-.3,2.89.09-.12-.02-.2-.04-.22-.05-.81-.19-1.31-1-1.12-1.8Z"/>
          <path class="cls-24" d="m431.54,383.58c-1.94.86-4.56.43-5.22.3.79.17,1.66.45,2.59.87,1.18.53,2.11,1.15,2.84,1.77,1.98-1.34,3.15-3.54,3.23-5.86-.33.52-1.39,2.01-3.44,2.91Z"/>
          <path class="cls-24" d="m425.73,386.82s-.02,0-.03,0c.01,0,.02,0,.03,0Z"/>
          <path class="cls-24" d="m426.32,383.88c-.1-.02-.15-.03-.16-.03-.81-.18-1.61.31-1.8,1.12s.31,1.61,1.12,1.8c.02,0,.1.02.22.05.01,0,.02,0,.03,0,.47.09,1.56.27,2.87.27.85,0,1.8-.09,2.74-.32.14-.08.27-.17.4-.26-.73-.62-1.65-1.24-2.84-1.77-.94-.42-1.8-.69-2.59-.87Z"/>
          <path class="cls-24" d="m402.73,405.84c-.55-.61-1.48-.66-2.09-.12-.62.54-.68,1.48-.15,2.11.05.06,1.17,1.42,1.12,4.12-.06,2.86-2.11,5.62-2.13,5.65-.05.06-.08.13-.12.2.44-.1.87-.24,1.29-.43,1.42-.63,2.53-1.66,3.28-2.89.08.07.17.12.26.19.24-.83.4-1.73.42-2.65.08-3.89-1.67-5.95-1.87-6.17Z"/>
          <path class="cls-24" d="m410.61,402.25c-.73-.4-1.63-.13-2.03.58-.4.72-.15,1.63.57,2.04.02,0,1.73,1,3.38,3.46,1.32,1.97,1.64,4.4,1.71,5.25,1.13-1.25,1.8-2.84,1.9-4.51.04,0,.09,0,.13.01-.31-.81-.71-1.64-1.24-2.42-2.08-3.1-4.32-4.36-4.41-4.41Z"/>
        </g>
        <g>
          <path class="cls-19" d="m403.3,404.51c-9.37,4.16-20.38-.09-24.54-9.46l-13.54-30.55s3.92-6.11,18.42-12.54c14.5-6.43,21.66-5.23,21.66-5.23l13.54,30.55c4.16,9.37-.09,20.38-9.46,24.54l-6.08,2.7Z"/>
          <path class="cls-24" d="m395.78,409.11c-2.63,0-5.26-.49-7.79-1.46-5.39-2.08-9.64-6.12-11.97-11.39l-13.54-30.54c-.41-.92-.33-1.99.22-2.83.45-.7,4.83-7.06,19.73-13.67,14.9-6.61,22.55-5.58,23.38-5.44.99.17,1.84.82,2.25,1.74l13.54,30.55c4.83,10.89-.1,23.67-10.99,28.49l-6.08,2.7c-2.79,1.24-5.76,1.86-8.73,1.86Zm-27.06-44.12l12.78,28.84c1.69,3.8,4.76,6.72,8.65,8.22,3.89,1.5,8.13,1.4,11.93-.29h0s6.08-2.7,6.08-2.7c7.86-3.48,11.42-12.71,7.94-20.58l-12.79-28.84c-2.65.07-8.81.77-18.46,5.05-9.64,4.27-14.3,8.36-16.14,10.29Z"/>
        </g>
      </g>
    </g>
  </g>
</svg>